<?xml version="1.0" encoding="UTF-8" standalone="no"?>
<svg width="1024px" height="768px" viewBox="0 0 1024 768" version="1.1" xmlns="http://www.w3.org/2000/svg" xmlns:xlink="http://www.w3.org/1999/xlink" xmlns:sketch="http://www.bohemiancoding.com/sketch/ns">
    <title>bolle</title>
    <description>Created with Sketch (http://www.bohemiancoding.com/sketch)</description>
    <defs></defs>
    <g id="Page 1" fill="#D8D8D8" fill-rule="evenodd">
        <g id="Landscape">
            <g id="Bolle">
                <path d="M35.5,118 C55.1061096,118 71,102.10611 71,82.5 C71,62.8938904 55.1061096,47 35.5,47 C15.8938904,47 0,62.8938904 0,82.5 C0,102.10611 15.8938904,118 35.5,118 Z M35.5,118" id="Oval 10" fill="#F8F8F8"></path>
                <path d="M146.5,120 C161.135547,120 173,108.135547 173,93.5 C173,78.8644534 161.135547,67 146.5,67 C131.864453,67 120,78.8644534 120,93.5 C120,108.135547 131.864453,120 146.5,120 Z M146.5,120" id="Oval 10" fill="#F8F8F8"></path>
                <path d="M343.5,307 C356.478692,307 367,296.478692 367,283.5 C367,270.521308 356.478692,260 343.5,260 C330.521308,260 320,270.521308 320,283.5 C320,296.478692 330.521308,307 343.5,307 Z M343.5,307" id="Oval 10" fill="#F8F8F8"></path>
                <path d="M93.5,128 C103.164984,128 111,120.164984 111,110.5 C111,100.835016 103.164984,93 93.5,93 C83.8350164,93 76,100.835016 76,110.5 C76,120.164984 83.8350164,128 93.5,128 Z M93.5,128" id="Oval 10" fill="#F8F8F8"></path>
                <path d="M274.5,123 C284.164984,123 292,115.164984 292,105.5 C292,95.8350164 284.164984,88 274.5,88 C264.835016,88 257,95.8350164 257,105.5 C257,115.164984 264.835016,123 274.5,123 Z M274.5,123" id="Oval 10" fill="#F8F8F8"></path>
                <path d="M387.5,55 C397.164984,55 405,47.1649836 405,37.5 C405,27.8350164 397.164984,20 387.5,20 C377.835016,20 370,27.8350164 370,37.5 C370,47.1649836 377.835016,55 387.5,55 Z M387.5,55" id="Oval 10" fill="#F8F8F8"></path>
                <path d="M262.5,326 C272.164984,326 280,318.164984 280,308.5 C280,298.835016 272.164984,291 262.5,291 C252.835016,291 245,298.835016 245,308.5 C245,318.164984 252.835016,326 262.5,326 Z M262.5,326" id="Oval 10" fill="#F8F8F8"></path>
                <path d="M304.5,436 C314.164984,436 322,428.164984 322,418.5 C322,408.835016 314.164984,401 304.5,401 C294.835016,401 287,408.835016 287,418.5 C287,428.164984 294.835016,436 304.5,436 Z M304.5,436" id="Oval 10" fill="#F8F8F8"></path>
                <path d="M141,202 C159.777682,202 175,186.777682 175,168 C175,149.222318 159.777682,134 141,134 C122.222318,134 107,149.222318 107,168 C107,186.777682 122.222318,202 141,202 Z M141,202" id="Oval 10" fill="#F8F8F8"></path>
                <path d="M87,299 C100.254835,299 111,288.254835 111,275 C111,261.745165 100.254835,251 87,251 C73.7451653,251 63,261.745165 63,275 C63,288.254835 73.7451653,299 87,299 Z M87,299" id="Oval 10" fill="#F8F8F8"></path>
                <path d="M157,309 C170.254835,309 181,298.254835 181,285 C181,271.745165 170.254835,261 157,261 C143.745165,261 133,271.745165 133,285 C133,298.254835 143.745165,309 157,309 Z M157,309" id="Oval 10" fill="#F8F8F8"></path>
                <path d="M119.5,358 C136.344686,358 150,344.344686 150,327.5 C150,310.655314 136.344686,297 119.5,297 C102.655314,297 89,310.655314 89,327.5 C89,344.344686 102.655314,358 119.5,358 Z M119.5,358" id="Oval 10" fill="#F8F8F8"></path>
                <path d="M257,254 C280.748245,254 300,234.748245 300,211 C300,187.251755 280.748245,168 257,168 C233.251755,168 214,187.251755 214,211 C214,234.748245 233.251755,254 257,254 Z M257,254" id="Oval 10" fill="#F8F8F8"></path>
                <path d="M242,449 C265.748245,449 285,429.748245 285,406 C285,382.251755 265.748245,363 242,363 C218.251755,363 199,382.251755 199,406 C199,429.748245 218.251755,449 242,449 Z M242,449" id="Oval 10" fill="#F8F8F8"></path>
                <path d="M454,197 C477.748245,197 497,177.748245 497,154 C497,130.251755 477.748245,111 454,111 C430.251755,111 411,130.251755 411,154 C411,177.748245 430.251755,197 454,197 Z M454,197" id="Oval 10" fill="#F8F8F8"></path>
                <path d="M442,340 C465.748245,340 485,320.748245 485,297 C485,273.251755 465.748245,254 442,254 C418.251755,254 399,273.251755 399,297 C399,320.748245 418.251755,340 442,340 Z M442,340" id="Oval 10" fill="#F8F8F8"></path>
                <path d="M611,468 C634.748245,468 654,448.748245 654,425 C654,401.251755 634.748245,382 611,382 C587.251755,382 568,401.251755 568,425 C568,448.748245 587.251755,468 611,468 Z M611,468" id="Oval 10" fill="#F8F8F8"></path>
                <path d="M580,86 C603.748245,86 623,66.7482454 623,43 C623,19.2517546 603.748245,0 580,0 C556.251755,0 537,19.2517546 537,43 C537,66.7482454 556.251755,86 580,86 Z M580,86" id="Oval 10" fill="#F8F8F8"></path>
                <path d="M280.5,51 C293.478692,51 304,40.4786923 304,27.5 C304,14.5213077 293.478692,4 280.5,4 C267.521308,4 257,14.5213077 257,27.5 C257,40.4786923 267.521308,51 280.5,51 Z M280.5,51" id="Oval 10" fill="#F8F8F8"></path>
                <path d="M356.5,235 C369.478692,235 380,224.478692 380,211.5 C380,198.521308 369.478692,188 356.5,188 C343.521308,188 333,198.521308 333,211.5 C333,224.478692 343.521308,235 356.5,235 Z M356.5,235" id="Oval 10" fill="#F8F8F8"></path>
                <path d="M361,168 C391.375663,168 416,143.375663 416,113 C416,82.6243373 391.375663,58 361,58 C330.624337,58 306,82.6243373 306,113 C306,143.375663 330.624337,168 361,168 Z M361,168" id="Oval 10" fill="#F8F8F8"></path>
                <path d="M461.5,71 C474.478692,71 485,60.4786923 485,47.5 C485,34.5213077 474.478692,24 461.5,24 C448.521308,24 438,34.5213077 438,47.5 C438,60.4786923 448.521308,71 461.5,71 Z M461.5,71" id="Oval 10" fill="#F8F8F8"></path>
                <path d="M106.5,409 C119.478692,409 130,398.478692 130,385.5 C130,372.521308 119.478692,362 106.5,362 C93.5213077,362 83,372.521308 83,385.5 C83,398.478692 93.5213077,409 106.5,409 Z M106.5,409" id="Oval 10" fill="#F8F8F8"></path>
                <path d="M403.5,387 C416.478692,387 427,376.478692 427,363.5 C427,350.521308 416.478692,340 403.5,340 C390.521308,340 380,350.521308 380,363.5 C380,376.478692 390.521308,387 403.5,387 Z M403.5,387" id="Oval 10" fill="#F8F8F8"></path>
                <path d="M515.5,326 C528.478692,326 539,315.478692 539,302.5 C539,289.521308 528.478692,279 515.5,279 C502.521308,279 492,289.521308 492,302.5 C492,315.478692 502.521308,326 515.5,326 Z M515.5,326" id="Oval 10" fill="#F8F8F8"></path>
                <path d="M573,314 C590.120828,314 604,300.120828 604,283 C604,265.879172 590.120828,252 573,252 C555.879172,252 542,265.879172 542,283 C542,300.120828 555.879172,314 573,314 Z M573,314" id="Oval 10" fill="#F8F8F8"></path>
                <path d="M543,413 C560.120828,413 574,399.120828 574,382 C574,364.879172 560.120828,351 543,351 C525.879172,351 512,364.879172 512,382 C512,399.120828 525.879172,413 543,413 Z M543,413" id="Oval 10" fill="#F8F8F8"></path>
                <path d="M557,147 C574.120828,147 588,133.120828 588,116 C588,98.8791719 574.120828,85 557,85 C539.879172,85 526,98.8791719 526,116 C526,133.120828 539.879172,147 557,147 Z M557,147" id="Oval 10" fill="#F8F8F8"></path>
                <path d="M322,401 C346.852815,401 367,380.852815 367,356 C367,331.147185 346.852815,311 322,311 C297.147185,311 277,331.147185 277,356 C277,380.852815 297.147185,401 322,401 Z M322,401" id="Oval 10" fill="#F8F8F8"></path>
                <path d="M457.5,388 C470.478692,388 481,377.478692 481,364.5 C481,351.521308 470.478692,341 457.5,341 C444.521308,341 434,351.521308 434,364.5 C434,377.478692 444.521308,388 457.5,388 Z M457.5,388" id="Oval 10" fill="#F8F8F8"></path>
                <path d="M549.5,217 C562.478692,217 573,206.478692 573,193.5 C573,180.521308 562.478692,170 549.5,170 C536.521308,170 526,180.521308 526,193.5 C526,206.478692 536.521308,217 549.5,217 Z M549.5,217" id="Oval 10" fill="#F8F8F8"></path>
                <path d="M634.5,221 C647.478692,221 658,210.478692 658,197.5 C658,184.521308 647.478692,174 634.5,174 C621.521308,174 611,184.521308 611,197.5 C611,210.478692 621.521308,221 634.5,221 Z M634.5,221" id="Oval 10" fill="#F8F8F8"></path>
                <path d="M58.5,168 C70.9264075,168 81,157.926407 81,145.5 C81,133.073593 70.9264075,123 58.5,123 C46.0735925,123 36,133.073593 36,145.5 C36,157.926407 46.0735925,168 58.5,168 Z M58.5,168" id="Oval 10" fill="#F8F8F8"></path>
                <path d="M238.5,161 C250.926407,161 261,150.926407 261,138.5 C261,126.073593 250.926407,116 238.5,116 C226.073593,116 216,126.073593 216,138.5 C216,150.926407 226.073593,161 238.5,161 Z M238.5,161" id="Oval 10" fill="#F8F8F8"></path>
                <path d="M79,51 C83.4182782,51 87,47.4182782 87,43 C87,38.5817218 83.4182782,35 79,35 C74.5817218,35 71,38.5817218 71,43 C71,47.4182782 74.5817218,51 79,51 Z M79,51" id="Oval 10" fill="#F8F8F8"></path>
                <path d="M119,71 C123.418278,71 127,67.4182782 127,63 C127,58.5817218 123.418278,55 119,55 C114.581722,55 111,58.5817218 111,63 C111,67.4182782 114.581722,71 119,71 Z M119,71" id="Oval 10" fill="#F8F8F8"></path>
                <path d="M214,111 C218.418278,111 222,107.418278 222,103 C222,98.5817218 218.418278,95 214,95 C209.581722,95 206,98.5817218 206,103 C206,107.418278 209.581722,111 214,111 Z M214,111" id="Oval 10" fill="#F8F8F8"></path>
                <path d="M189,214 C193.418278,214 197,210.418278 197,206 C197,201.581722 193.418278,198 189,198 C184.581722,198 181,201.581722 181,206 C181,210.418278 184.581722,214 189,214 Z M189,214" id="Path" fill="#F8F8F8"></path>
                <path d="M335,419 C339.418278,419 343,415.418278 343,411 C343,406.581722 339.418278,403 335,403 C330.581722,403 327,406.581722 327,411 C327,415.418278 330.581722,419 335,419 Z M335,419" id="Path" fill="#F8F8F8"></path>
                <path d="M290,453 C294.418278,453 298,449.418278 298,445 C298,440.581722 294.418278,437 290,437 C285.581722,437 282,440.581722 282,445 C282,449.418278 285.581722,453 290,453 Z M290,453" id="Path" fill="#F8F8F8"></path>
                <path d="M487,348 C491.418278,348 495,344.418278 495,340 C495,335.581722 491.418278,332 487,332 C482.581722,332 479,335.581722 479,340 C479,344.418278 482.581722,348 487,348 Z M487,348" id="Path" fill="#F8F8F8"></path>
                <path d="M516,111 C520.418278,111 524,107.418278 524,103 C524,98.5817218 520.418278,95 516,95 C511.581722,95 508,98.5817218 508,103 C508,107.418278 511.581722,111 516,111 Z M516,111" id="Oval 10" fill="#F8F8F8"></path>
                <path d="M485,214 C489.418278,214 493,210.418278 493,206 C493,201.581722 489.418278,198 485,198 C480.581722,198 477,201.581722 477,206 C477,210.418278 480.581722,214 485,214 Z M485,214" id="Oval 10" fill="#F8F8F8"></path>
                <path d="M524,55 C528.418278,55 532,51.4182782 532,47 C532,42.5817218 528.418278,39 524,39 C519.581722,39 516,42.5817218 516,47 C516,51.4182782 519.581722,55 524,55 Z M524,55" id="Oval 10" fill="#F8F8F8"></path>
                <path d="M535,270 C539.418278,270 543,266.418278 543,262 C543,257.581722 539.418278,254 535,254 C530.581722,254 527,257.581722 527,262 C527,266.418278 530.581722,270 535,270 Z M535,270" id="Oval 10" fill="#F8F8F8"></path>
                <path d="M560,168 C564.418278,168 568,164.418278 568,160 C568,155.581722 564.418278,152 560,152 C555.581722,152 552,155.581722 552,160 C552,164.418278 555.581722,168 560,168 Z M560,168" id="Oval 10" fill="#F8F8F8"></path>
            </g>
            <g id="Bolle">
                <path d="M652.5,133 C672.10611,133 688,117.10611 688,97.5 C688,77.8938904 672.10611,62 652.5,62 C632.89389,62 617,77.8938904 617,97.5 C617,117.10611 632.89389,133 652.5,133 Z M652.5,133" id="Oval 10" fill="#F8F8F8"></path>
                <path d="M763.5,135 C778.135547,135 790,123.135547 790,108.5 C790,93.8644534 778.135547,82 763.5,82 C748.864453,82 737,93.8644534 737,108.5 C737,123.135547 748.864453,135 763.5,135 Z M763.5,135" id="Oval 10" fill="#F8F8F8"></path>
                <path d="M960.5,322 C973.478692,322 984,311.478692 984,298.5 C984,285.521308 973.478692,275 960.5,275 C947.521308,275 937,285.521308 937,298.5 C937,311.478692 947.521308,322 960.5,322 Z M960.5,322" id="Oval 10" fill="#F8F8F8"></path>
                <path d="M710.5,143 C720.164984,143 728,135.164984 728,125.5 C728,115.835016 720.164984,108 710.5,108 C700.835016,108 693,115.835016 693,125.5 C693,135.164984 700.835016,143 710.5,143 Z M710.5,143" id="Oval 10" fill="#F8F8F8"></path>
                <path d="M891.5,138 C901.164984,138 909,130.164984 909,120.5 C909,110.835016 901.164984,103 891.5,103 C881.835016,103 874,110.835016 874,120.5 C874,130.164984 881.835016,138 891.5,138 Z M891.5,138" id="Oval 10" fill="#F8F8F8"></path>
                <path d="M1004.5,70 C1014.16498,70 1022,62.1649836 1022,52.5 C1022,42.8350164 1014.16498,35 1004.5,35 C994.835016,35 987,42.8350164 987,52.5 C987,62.1649836 994.835016,70 1004.5,70 Z M1004.5,70" id="Oval 10" fill="#F8F8F8"></path>
                <path d="M879.5,341 C889.164984,341 897,333.164984 897,323.5 C897,313.835016 889.164984,306 879.5,306 C869.835016,306 862,313.835016 862,323.5 C862,333.164984 869.835016,341 879.5,341 Z M879.5,341" id="Oval 10" fill="#F8F8F8"></path>
                <path d="M921.5,451 C931.164984,451 939,443.164984 939,433.5 C939,423.835016 931.164984,416 921.5,416 C911.835016,416 904,423.835016 904,433.5 C904,443.164984 911.835016,451 921.5,451 Z M921.5,451" id="Oval 10" fill="#F8F8F8"></path>
                <path d="M758,217 C776.777682,217 792,201.777682 792,183 C792,164.222318 776.777682,149 758,149 C739.222318,149 724,164.222318 724,183 C724,201.777682 739.222318,217 758,217 Z M758,217" id="Oval 10" fill="#F8F8F8"></path>
                <path d="M704,314 C717.254835,314 728,303.254835 728,290 C728,276.745165 717.254835,266 704,266 C690.745165,266 680,276.745165 680,290 C680,303.254835 690.745165,314 704,314 Z M704,314" id="Oval 10" fill="#F8F8F8"></path>
                <path d="M774,324 C787.254835,324 798,313.254835 798,300 C798,286.745165 787.254835,276 774,276 C760.745165,276 750,286.745165 750,300 C750,313.254835 760.745165,324 774,324 Z M774,324" id="Oval 10" fill="#F8F8F8"></path>
                <path d="M736.5,373 C753.344686,373 767,359.344686 767,342.5 C767,325.655314 753.344686,312 736.5,312 C719.655314,312 706,325.655314 706,342.5 C706,359.344686 719.655314,373 736.5,373 Z M736.5,373" id="Oval 10" fill="#F8F8F8"></path>
                <path d="M874,269 C897.748245,269 917,249.748245 917,226 C917,202.251755 897.748245,183 874,183 C850.251755,183 831,202.251755 831,226 C831,249.748245 850.251755,269 874,269 Z M874,269" id="Oval 10" fill="#F8F8F8"></path>
                <path d="M859,464 C882.748245,464 902,444.748245 902,421 C902,397.251755 882.748245,378 859,378 C835.251755,378 816,397.251755 816,421 C816,444.748245 835.251755,464 859,464 Z M859,464" id="Oval 10" fill="#F8F8F8"></path>
                <path d="M897.5,66 C910.478692,66 921,55.4786923 921,42.5 C921,29.5213077 910.478692,19 897.5,19 C884.521308,19 874,29.5213077 874,42.5 C874,55.4786923 884.521308,66 897.5,66 Z M897.5,66" id="Oval 10" fill="#F8F8F8"></path>
                <path d="M973.5,250 C986.478692,250 997,239.478692 997,226.5 C997,213.521308 986.478692,203 973.5,203 C960.521308,203 950,213.521308 950,226.5 C950,239.478692 960.521308,250 973.5,250 Z M973.5,250" id="Oval 10" fill="#F8F8F8"></path>
                <path d="M723.5,424 C736.478692,424 747,413.478692 747,400.5 C747,387.521308 736.478692,377 723.5,377 C710.521308,377 700,387.521308 700,400.5 C700,413.478692 710.521308,424 723.5,424 Z M723.5,424" id="Oval 10" fill="#F8F8F8"></path>
                <path d="M939,416 C963.852815,416 984,395.852815 984,371 C984,346.147185 963.852815,326 939,326 C914.147185,326 894,346.147185 894,371 C894,395.852815 914.147185,416 939,416 Z M939,416" id="Oval 10" fill="#F8F8F8"></path>
                <path d="M675.5,183 C687.926407,183 698,172.926407 698,160.5 C698,148.073593 687.926407,138 675.5,138 C663.073593,138 653,148.073593 653,160.5 C653,172.926407 663.073593,183 675.5,183 Z M675.5,183" id="Oval 10" fill="#F8F8F8"></path>
                <path d="M855.5,176 C867.926407,176 878,165.926407 878,153.5 C878,141.073593 867.926407,131 855.5,131 C843.073593,131 833,141.073593 833,153.5 C833,165.926407 843.073593,176 855.5,176 Z M855.5,176" id="Oval 10" fill="#F8F8F8"></path>
                <path d="M696,66 C700.418278,66 704,62.4182782 704,58 C704,53.5817218 700.418278,50 696,50 C691.581722,50 688,53.5817218 688,58 C688,62.4182782 691.581722,66 696,66 Z M696,66" id="Oval 10" fill="#F8F8F8"></path>
                <path d="M736,86 C740.418278,86 744,82.4182782 744,78 C744,73.5817218 740.418278,70 736,70 C731.581722,70 728,73.5817218 728,78 C728,82.4182782 731.581722,86 736,86 Z M736,86" id="Oval 10" fill="#F8F8F8"></path>
                <path d="M831,126 C835.418278,126 839,122.418278 839,118 C839,113.581722 835.418278,110 831,110 C826.581722,110 823,113.581722 823,118 C823,122.418278 826.581722,126 831,126 Z M831,126" id="Oval 10" fill="#F8F8F8"></path>
                <path d="M806,229 C810.418278,229 814,225.418278 814,221 C814,216.581722 810.418278,213 806,213 C801.581722,213 798,216.581722 798,221 C798,225.418278 801.581722,229 806,229 Z M806,229" id="Path" fill="#F8F8F8"></path>
                <path d="M952,434 C956.418278,434 960,430.418278 960,426 C960,421.581722 956.418278,418 952,418 C947.581722,418 944,421.581722 944,426 C944,430.418278 947.581722,434 952,434 Z M952,434" id="Path" fill="#F8F8F8"></path>
                <path d="M907,468 C911.418278,468 915,464.418278 915,460 C915,455.581722 911.418278,452 907,452 C902.581722,452 899,455.581722 899,460 C899,464.418278 902.581722,468 907,468 Z M907,468" id="Path" fill="#F8F8F8"></path>
            </g>
            <g id="Bolle">
                <path d="M14.5,535 C29.1355466,535 41,523.135547 41,508.5 C41,493.864453 29.1355466,482 14.5,482 C-0.135546595,482 -12,493.864453 -12,508.5 C-12,523.135547 -0.135546595,535 14.5,535 Z M14.5,535" id="Oval 10" fill="#F8F8F8"></path>
                <path d="M211.5,722 C224.478692,722 235,711.478692 235,698.5 C235,685.521308 224.478692,675 211.5,675 C198.521308,675 188,685.521308 188,698.5 C188,711.478692 198.521308,722 211.5,722 Z M211.5,722" id="Oval 10" fill="#F8F8F8"></path>
                <path d="M142.5,538 C152.164984,538 160,530.164984 160,520.5 C160,510.835016 152.164984,503 142.5,503 C132.835016,503 125,510.835016 125,520.5 C125,530.164984 132.835016,538 142.5,538 Z M142.5,538" id="Oval 10" fill="#F8F8F8"></path>
                <path d="M47.5,439 C57.1649836,439 65,431.164984 65,421.5 C65,411.835016 57.1649836,404 47.5,404 C37.8350164,404 30,411.835016 30,421.5 C30,431.164984 37.8350164,439 47.5,439 Z M47.5,439" id="Oval 10" fill="#F8F8F8"></path>
                <path d="M130.5,741 C140.164984,741 148,733.164984 148,723.5 C148,713.835016 140.164984,706 130.5,706 C120.835016,706 113,713.835016 113,723.5 C113,733.164984 120.835016,741 130.5,741 Z M130.5,741" id="Oval 10" fill="#F8F8F8"></path>
                <path d="M9,617 C27.7776824,617 43,601.777682 43,583 C43,564.222318 27.7776824,549 9,549 C-9.77768242,549 -25,564.222318 -25,583 C-25,601.777682 -9.77768242,617 9,617 Z M9,617" id="Oval 10" fill="#F8F8F8"></path>
                <path d="M25,724 C38.2548347,724 49,713.254835 49,700 C49,686.745165 38.2548347,676 25,676 C11.7451653,676 1,686.745165 1,700 C1,713.254835 11.7451653,724 25,724 Z M25,724" id="Oval 10" fill="#F8F8F8"></path>
                <path d="M-12.5,773 C4.3446857,773 18,759.344686 18,742.5 C18,725.655314 4.3446857,712 -12.5,712 C-29.3446857,712 -43,725.655314 -43,742.5 C-43,759.344686 -29.3446857,773 -12.5,773 Z M-12.5,773" id="Oval 10" fill="#F8F8F8"></path>
                <path d="M125,669 C148.748245,669 168,649.748245 168,626 C168,602.251755 148.748245,583 125,583 C101.251755,583 82,602.251755 82,626 C82,649.748245 101.251755,669 125,669 Z M125,669" id="Oval 10" fill="#F8F8F8"></path>
                <path d="M322,612 C345.748245,612 365,592.748245 365,569 C365,545.251755 345.748245,526 322,526 C298.251755,526 279,545.251755 279,569 C279,592.748245 298.251755,612 322,612 Z M322,612" id="Oval 10" fill="#F8F8F8"></path>
                <path d="M310,755 C333.748245,755 353,735.748245 353,712 C353,688.251755 333.748245,669 310,669 C286.251755,669 267,688.251755 267,712 C267,735.748245 286.251755,755 310,755 Z M310,755" id="Oval 10" fill="#F8F8F8"></path>
                <path d="M448,501 C471.748245,501 491,481.748245 491,458 C491,434.251755 471.748245,415 448,415 C424.251755,415 405,434.251755 405,458 C405,481.748245 424.251755,501 448,501 Z M448,501" id="Oval 10" fill="#F8F8F8"></path>
                <path d="M148.5,466 C161.478692,466 172,455.478692 172,442.5 C172,429.521308 161.478692,419 148.5,419 C135.521308,419 125,429.521308 125,442.5 C125,455.478692 135.521308,466 148.5,466 Z M148.5,466" id="Oval 10" fill="#F8F8F8"></path>
                <path d="M224.5,650 C237.478692,650 248,639.478692 248,626.5 C248,613.521308 237.478692,603 224.5,603 C211.521308,603 201,613.521308 201,626.5 C201,639.478692 211.521308,650 224.5,650 Z M224.5,650" id="Oval 10" fill="#F8F8F8"></path>
                <path d="M26,400 C56.3756627,400 81,375.375663 81,345 C81,314.624337 56.3756627,290 26,290 C-4.37566274,290 -29,314.624337 -29,345 C-29,375.375663 -4.37566274,400 26,400 Z M26,400" id="Oval 10" fill="#F8F8F8"></path>
                <path d="M329.5,486 C342.478692,486 353,475.478692 353,462.5 C353,449.521308 342.478692,439 329.5,439 C316.521308,439 306,449.521308 306,462.5 C306,475.478692 316.521308,486 329.5,486 Z M329.5,486" id="Oval 10" fill="#F8F8F8"></path>
                <path d="M271.5,802 C284.478692,802 295,791.478692 295,778.5 C295,765.521308 284.478692,755 271.5,755 C258.521308,755 248,765.521308 248,778.5 C248,791.478692 258.521308,802 271.5,802 Z M271.5,802" id="Oval 10" fill="#F8F8F8"></path>
                <path d="M383.5,741 C396.478692,741 407,730.478692 407,717.5 C407,704.521308 396.478692,694 383.5,694 C370.521308,694 360,704.521308 360,717.5 C360,730.478692 370.521308,741 383.5,741 Z M383.5,741" id="Oval 10" fill="#F8F8F8"></path>
                <path d="M441,729 C458.120828,729 472,715.120828 472,698 C472,680.879172 458.120828,667 441,667 C423.879172,667 410,680.879172 410,698 C410,715.120828 423.879172,729 441,729 Z M441,729" id="Oval 10" fill="#F8F8F8"></path>
                <path d="M411,828 C428.120828,828 442,814.120828 442,797 C442,779.879172 428.120828,766 411,766 C393.879172,766 380,779.879172 380,797 C380,814.120828 393.879172,828 411,828 Z M411,828" id="Oval 10" fill="#F8F8F8"></path>
                <path d="M425,562 C442.120828,562 456,548.120828 456,531 C456,513.879172 442.120828,500 425,500 C407.879172,500 394,513.879172 394,531 C394,548.120828 407.879172,562 425,562 Z M425,562" id="Oval 10" fill="#F8F8F8"></path>
                <path d="M190,816 C214.852815,816 235,795.852815 235,771 C235,746.147185 214.852815,726 190,726 C165.147185,726 145,746.147185 145,771 C145,795.852815 165.147185,816 190,816 Z M190,816" id="Oval 10" fill="#F8F8F8"></path>
                <path d="M325.5,803 C338.478692,803 349,792.478692 349,779.5 C349,766.521308 338.478692,756 325.5,756 C312.521308,756 302,766.521308 302,779.5 C302,792.478692 312.521308,803 325.5,803 Z M325.5,803" id="Oval 10" fill="#F8F8F8"></path>
                <path d="M417.5,632 C430.478692,632 441,621.478692 441,608.5 C441,595.521308 430.478692,585 417.5,585 C404.521308,585 394,595.521308 394,608.5 C394,621.478692 404.521308,632 417.5,632 Z M417.5,632" id="Oval 10" fill="#F8F8F8"></path>
                <path d="M502.5,636 C515.478692,636 526,625.478692 526,612.5 C526,599.521308 515.478692,589 502.5,589 C489.521308,589 479,599.521308 479,612.5 C479,625.478692 489.521308,636 502.5,636 Z M502.5,636" id="Oval 10" fill="#F8F8F8"></path>
                <path d="M106.5,576 C118.926407,576 129,565.926407 129,553.5 C129,541.073593 118.926407,531 106.5,531 C94.0735925,531 84,541.073593 84,553.5 C84,565.926407 94.0735925,576 106.5,576 Z M106.5,576" id="Oval 10" fill="#F8F8F8"></path>
                <path d="M82,526 C86.4182782,526 90,522.418278 90,518 C90,513.581722 86.4182782,510 82,510 C77.5817218,510 74,513.581722 74,518 C74,522.418278 77.5817218,526 82,526 Z M82,526" id="Oval 10" fill="#F8F8F8"></path>
                <path d="M57,629 C61.4182782,629 65,625.418278 65,621 C65,616.581722 61.4182782,613 57,613 C52.5817218,613 49,616.581722 49,621 C49,625.418278 52.5817218,629 57,629 Z M57,629" id="Path" fill="#F8F8F8"></path>
                <path d="M355,763 C359.418278,763 363,759.418278 363,755 C363,750.581722 359.418278,747 355,747 C350.581722,747 347,750.581722 347,755 C347,759.418278 350.581722,763 355,763 Z M355,763" id="Path" fill="#F8F8F8"></path>
                <path d="M384,526 C388.418278,526 392,522.418278 392,518 C392,513.581722 388.418278,510 384,510 C379.581722,510 376,513.581722 376,518 C376,522.418278 379.581722,526 384,526 Z M384,526" id="Oval 10" fill="#F8F8F8"></path>
                <path d="M353,629 C357.418278,629 361,625.418278 361,621 C361,616.581722 357.418278,613 353,613 C348.581722,613 345,616.581722 345,621 C345,625.418278 348.581722,629 353,629 Z M353,629" id="Oval 10" fill="#F8F8F8"></path>
                <path d="M392,470 C396.418278,470 400,466.418278 400,462 C400,457.581722 396.418278,454 392,454 C387.581722,454 384,457.581722 384,462 C384,466.418278 387.581722,470 392,470 Z M392,470" id="Oval 10" fill="#F8F8F8"></path>
                <path d="M403,685 C407.418278,685 411,681.418278 411,677 C411,672.581722 407.418278,669 403,669 C398.581722,669 395,672.581722 395,677 C395,681.418278 398.581722,685 403,685 Z M403,685" id="Oval 10" fill="#F8F8F8"></path>
                <path d="M428,583 C432.418278,583 436,579.418278 436,575 C436,570.581722 432.418278,567 428,567 C423.581722,567 420,570.581722 420,575 C420,579.418278 423.581722,583 428,583 Z M428,583" id="Oval 10" fill="#F8F8F8"></path>
            </g>
            <g id="Bolle">
                <path d="M561.5,561 C581.10611,561 597,545.10611 597,525.5 C597,505.89389 581.10611,490 561.5,490 C541.89389,490 526,505.89389 526,525.5 C526,545.10611 541.89389,561 561.5,561 Z M561.5,561" id="Oval 10" fill="#F8F8F8"></path>
                <path d="M672.5,563 C687.135547,563 699,551.135547 699,536.5 C699,521.864453 687.135547,510 672.5,510 C657.864453,510 646,521.864453 646,536.5 C646,551.135547 657.864453,563 672.5,563 Z M672.5,563" id="Oval 10" fill="#F8F8F8"></path>
                <path d="M869.5,750 C882.478692,750 893,739.478692 893,726.5 C893,713.521308 882.478692,703 869.5,703 C856.521308,703 846,713.521308 846,726.5 C846,739.478692 856.521308,750 869.5,750 Z M869.5,750" id="Oval 10" fill="#F8F8F8"></path>
                <path d="M619.5,571 C629.164984,571 637,563.164984 637,553.5 C637,543.835016 629.164984,536 619.5,536 C609.835016,536 602,543.835016 602,553.5 C602,563.164984 609.835016,571 619.5,571 Z M619.5,571" id="Oval 10" fill="#F8F8F8"></path>
                <path d="M800.5,566 C810.164984,566 818,558.164984 818,548.5 C818,538.835016 810.164984,531 800.5,531 C790.835016,531 783,538.835016 783,548.5 C783,558.164984 790.835016,566 800.5,566 Z M800.5,566" id="Oval 10" fill="#F8F8F8"></path>
                <path d="M705.5,467 C715.164984,467 723,459.164984 723,449.5 C723,439.835016 715.164984,432 705.5,432 C695.835016,432 688,439.835016 688,449.5 C688,459.164984 695.835016,467 705.5,467 Z M705.5,467" id="Oval 10" fill="#F8F8F8"></path>
                <path d="M788.5,769 C798.164984,769 806,761.164984 806,751.5 C806,741.835016 798.164984,734 788.5,734 C778.835016,734 771,741.835016 771,751.5 C771,761.164984 778.835016,769 788.5,769 Z M788.5,769" id="Oval 10" fill="#F8F8F8"></path>
                <path d="M667,645 C685.777682,645 701,629.777682 701,611 C701,592.222318 685.777682,577 667,577 C648.222318,577 633,592.222318 633,611 C633,629.777682 648.222318,645 667,645 Z M667,645" id="Oval 10" fill="#F8F8F8"></path>
                <path d="M613,742 C626.254835,742 637,731.254835 637,718 C637,704.745165 626.254835,694 613,694 C599.745165,694 589,704.745165 589,718 C589,731.254835 599.745165,742 613,742 Z M613,742" id="Oval 10" fill="#F8F8F8"></path>
                <path d="M683,752 C696.254835,752 707,741.254835 707,728 C707,714.745165 696.254835,704 683,704 C669.745165,704 659,714.745165 659,728 C659,741.254835 669.745165,752 683,752 Z M683,752" id="Oval 10" fill="#F8F8F8"></path>
                <path d="M645.5,801 C662.344686,801 676,787.344686 676,770.5 C676,753.655314 662.344686,740 645.5,740 C628.655314,740 615,753.655314 615,770.5 C615,787.344686 628.655314,801 645.5,801 Z M645.5,801" id="Oval 10" fill="#F8F8F8"></path>
                <path d="M783,697 C806.748245,697 826,677.748245 826,654 C826,630.251755 806.748245,611 783,611 C759.251755,611 740,630.251755 740,654 C740,677.748245 759.251755,697 783,697 Z M783,697" id="Oval 10" fill="#F8F8F8"></path>
                <path d="M980,640 C1003.74825,640 1023,620.748245 1023,597 C1023,573.251755 1003.74825,554 980,554 C956.251755,554 937,573.251755 937,597 C937,620.748245 956.251755,640 980,640 Z M980,640" id="Oval 10" fill="#F8F8F8"></path>
                <path d="M968,783 C991.748245,783 1011,763.748245 1011,740 C1011,716.251755 991.748245,697 968,697 C944.251755,697 925,716.251755 925,740 C925,763.748245 944.251755,783 968,783 Z M968,783" id="Oval 10" fill="#F8F8F8"></path>
                <path d="M806.5,494 C819.478692,494 830,483.478692 830,470.5 C830,457.521308 819.478692,447 806.5,447 C793.521308,447 783,457.521308 783,470.5 C783,483.478692 793.521308,494 806.5,494 Z M806.5,494" id="Oval 10" fill="#F8F8F8"></path>
                <path d="M882.5,678 C895.478692,678 906,667.478692 906,654.5 C906,641.521308 895.478692,631 882.5,631 C869.521308,631 859,641.521308 859,654.5 C859,667.478692 869.521308,678 882.5,678 Z M882.5,678" id="Oval 10" fill="#F8F8F8"></path>
                <path d="M987.5,514 C1000.47869,514 1011,503.478692 1011,490.5 C1011,477.521308 1000.47869,467 987.5,467 C974.521308,467 964,477.521308 964,490.5 C964,503.478692 974.521308,514 987.5,514 Z M987.5,514" id="Oval 10" fill="#F8F8F8"></path>
                <path d="M1041.5,769 C1054.47869,769 1065,758.478692 1065,745.5 C1065,732.521308 1054.47869,722 1041.5,722 C1028.52131,722 1018,732.521308 1018,745.5 C1018,758.478692 1028.52131,769 1041.5,769 Z M1041.5,769" id="Oval 10" fill="#F8F8F8"></path>
                <path d="M848,844 C872.852815,844 893,823.852815 893,799 C893,774.147185 872.852815,754 848,754 C823.147185,754 803,774.147185 803,799 C803,823.852815 823.147185,844 848,844 Z M848,844" id="Oval 10" fill="#F8F8F8"></path>
                <path d="M584.5,611 C596.926407,611 607,600.926407 607,588.5 C607,576.073593 596.926407,566 584.5,566 C572.073593,566 562,576.073593 562,588.5 C562,600.926407 572.073593,611 584.5,611 Z M584.5,611" id="Oval 10" fill="#F8F8F8"></path>
                <path d="M764.5,604 C776.926407,604 787,593.926407 787,581.5 C787,569.073593 776.926407,559 764.5,559 C752.073593,559 742,569.073593 742,581.5 C742,593.926407 752.073593,604 764.5,604 Z M764.5,604" id="Oval 10" fill="#F8F8F8"></path>
                <path d="M605,494 C609.418278,494 613,490.418278 613,486 C613,481.581722 609.418278,478 605,478 C600.581722,478 597,481.581722 597,486 C597,490.418278 600.581722,494 605,494 Z M605,494" id="Oval 10" fill="#F8F8F8"></path>
                <path d="M645,514 C649.418278,514 653,510.418278 653,506 C653,501.581722 649.418278,498 645,498 C640.581722,498 637,501.581722 637,506 C637,510.418278 640.581722,514 645,514 Z M645,514" id="Oval 10" fill="#F8F8F8"></path>
                <path d="M740,554 C744.418278,554 748,550.418278 748,546 C748,541.581722 744.418278,538 740,538 C735.581722,538 732,541.581722 732,546 C732,550.418278 735.581722,554 740,554 Z M740,554" id="Oval 10" fill="#F8F8F8"></path>
                <path d="M715,657 C719.418278,657 723,653.418278 723,649 C723,644.581722 719.418278,641 715,641 C710.581722,641 707,644.581722 707,649 C707,653.418278 710.581722,657 715,657 Z M715,657" id="Path" fill="#F8F8F8"></path>
                <path d="M1011,657 C1015.41828,657 1019,653.418278 1019,649 C1019,644.581722 1015.41828,641 1011,641 C1006.58172,641 1003,644.581722 1003,649 C1003,653.418278 1006.58172,657 1011,657 Z M1011,657" id="Oval 10" fill="#F8F8F8"></path>
            </g>
        </g>
    </g>
</svg>