<?xml version="1.0" encoding="UTF-8" standalone="no"?>
<svg width="1700px" height="302px" viewBox="0 0 1700 302" version="1.1" xmlns="http://www.w3.org/2000/svg" xmlns:xlink="http://www.w3.org/1999/xlink" xmlns:sketch="http://www.bohemiancoding.com/sketch/ns">
    <title>bologna_skyline</title>
    <description>Created with Sketch (http://www.bohemiancoding.com/sketch)</description>
    <defs></defs>
    <g id="Page 1" fill="#D8D8D8" fill-rule="evenodd">
        <g id="Livello_1" fill="#000000">
            <path d="M148.113426,0.31935743 C149.494684,0.660005355 152.299702,1.3413012 153.680961,1.68194913 C155.083469,8.53748862 156.358477,15.4143186 157.123482,22.3550201 C159.99225,23.3982544 162.861018,24.4414886 165.751036,25.4634324 C165.559785,37.0454618 164.157276,48.5636198 164.433528,60.1477783 C164.454778,99.2562892 163.17977,138.411639 164.093526,177.477569 C163.774774,183.92646 172.317327,187.377649 174.676092,180.287914 C175.504847,180.417786 177.162357,180.690305 177.969862,180.841467 C178.479865,157.911604 178.203614,134.979611 178.798617,112.049748 C191.357446,111.347161 203.937525,111.264129 216.517603,111.538776 C216.687604,151.26684 216.432603,190.994904 216.538853,230.722969 C220.640129,230.980584 224.507653,232.236723 227.716423,234.872486 C229.182682,235.02152 232.0727,235.321716 233.53896,235.470749 C233.60271,229.528572 233.347708,223.569362 234.112713,217.674024 C235.812724,209.432473 241.061507,202.513062 246.735292,196.528304 C247.054044,191.080066 246.544041,185.459376 247.94655,180.115461 C250.284064,176.347044 253.705336,173.387665 256.701604,170.1728 C259.697873,173.832636 263.586647,177.07092 265.095407,181.690958 C266.030413,186.800677 265.817911,192.03601 266.030413,197.23089 C270.216689,202.021252 273.59546,207.452457 276.102976,213.286053 C276.294227,205.791799 275.061719,197.68012 278.929243,190.865032 C282.818018,183.309036 284.305527,174.897161 286.515541,166.76845 C288.04555,173.662312 288.661804,180.922371 291.849324,187.356359 C293.698086,191.614458 296.354352,195.806556 296.01435,200.662918 C296.01435,213.307344 295.97185,225.953898 296.01435,238.623871 C298.734367,238.623871 301.454384,238.623871 304.195651,238.645162 C304.0044,227.018422 303.94065,215.374651 304.365652,203.747911 C312.610704,203.726621 320.855755,203.726621 329.079557,203.726621 C329.355808,215.306521 329.100807,226.88855 330.205814,238.432257 C331.289571,238.261933 333.414584,237.942576 334.498341,237.791413 C334.923343,226.03906 334.880843,214.284577 334.795842,202.553514 C338.727117,200.424465 342.658392,198.274125 346.568416,196.145075 C351.030944,198.274125 355.493472,200.381884 359.956,202.489643 C360.211001,214.282448 360.636004,226.058221 360.593504,237.851027 C361.63476,237.917027 363.717273,238.042641 364.75853,238.108641 C364.631029,239.639428 364.397277,242.662678 364.269777,244.176433 C370.092313,244.45108 376.403603,243.582428 381.609885,246.816454 C382.162389,245.943544 383.224895,244.216885 383.756148,243.365265 C388.006175,244.621404 392.171201,246.156449 396.378727,247.580783 C396.251227,237.318764 396.187476,227.054616 396.484978,216.818146 C405.728786,216.560531 415.015094,216.390207 424.237651,217.433441 C424.258902,227.31436 424.216401,237.214441 424.258902,247.135812 C426.42854,247.135812 430.763567,247.178393 432.931081,247.197554 C432.801455,245.387862 432.548578,241.787639 432.421078,239.977947 C435.077344,240.086529 437.733611,240.169561 440.411128,240.278143 C440.049875,215.623749 440.519503,190.948065 441.133632,166.314962 C444.74403,164.50527 448.401178,162.718998 452.037075,160.909305 C456.138351,162.868031 460.301252,164.760756 464.530028,166.527867 C464.487528,191.735814 465.190907,216.94376 464.931656,242.130416 C466.334165,242.175126 469.139182,242.238998 470.562941,242.260288 C470.628816,240.833825 470.798817,237.959608 470.881693,236.535274 C478.637991,236.83547 486.500541,236.577855 493.704336,233.299119 C501.311883,229.528572 509.259433,234.127319 516.609854,236.256368 C516.378227,209.347311 516.269852,182.436125 516.801105,155.52281 C520.755755,151.713941 524.264152,147.477132 527.574922,143.089161 C530.082438,143.321227 532.592079,143.578842 535.099594,143.85349 C537.394609,148.390494 540.112501,152.710336 543.599647,156.461721 C544.553778,180.666885 543.491272,204.918888 544.343402,229.124052 C550.656817,223.207424 555.96935,215.517297 553.627585,206.449675 C566.804793,200.978018 580.298627,196.294109 593.57996,191.101357 C594.642467,192.03601 595.704973,192.951501 596.76748,193.888283 C599.784999,191.20568 602.549641,188.269721 605.076282,185.140018 C606.540416,185.010146 609.455934,184.756789 610.920068,184.629046 C611.342946,185.929896 612.195076,188.546497 612.617954,189.847347 C625.538035,194.105446 637.442359,200.724661 649.744061,206.451804 C649.382809,213.266892 649.444434,220.077721 649.661185,226.914099 C658.116613,232.000398 666.786667,236.726888 675.182595,241.900479 C675.095469,239.047552 675.012594,236.175465 674.925468,233.322538 C683.786774,229.575411 694.498966,222.464386 703.551522,229.701025 C703.764024,214.50174 702.958643,199.279036 704.191151,184.118074 C705.61491,175.048323 705.527785,165.829539 705.336533,156.676755 C712.965331,156.632045 720.594129,156.676755 728.242052,156.738497 C727.309171,162.850999 726.308289,169.042275 727.009544,175.237809 C731.176695,197.68012 726.735417,220.716436 730.537066,243.19707 C732.409203,247.987431 735.828349,251.904882 738.845868,255.996916 C746.158038,251.589783 754.422215,249.392604 762.922268,249.011504 C763.071019,243.710171 763.221895,238.387547 763.474772,233.086214 C768.661929,230.128964 773.738586,226.95668 778.755742,223.722654 C779.431496,208.923631 779.773624,194.107575 779.648248,179.308552 C779.431496,167.428455 780.540753,155.422745 778.36899,143.646972 C778.730242,142.478124 779.456997,140.15746 779.792749,138.986482 C778.647367,137.772924 776.331102,135.303227 775.18147,134.087539 C784.491153,131.470938 793.630835,127.958006 803.23377,126.531543 C811.882574,128.12833 819.872624,132.216105 828.332302,134.619802 C825.801411,149.501858 826.141413,164.66282 827.331421,179.649199 C827.841424,197.213858 827.461047,214.778517 827.461047,232.343175 C831.541072,235.877398 835.642348,239.41162 839.762749,242.926681 C839.783999,245.545412 839.824374,248.162013 839.892374,250.780744 C843.249895,250.868035 846.628666,250.951068 850.007438,251.05965 L850.007438,351.889307 L0,351.889307 L0,234.663839 C4.99378121,230.514322 10.561316,226.126351 17.5101094,227.212166 C18.4876155,230.192835 19.4651217,233.175634 20.4638779,236.135013 C21.8451365,233.727058 23.1626448,231.25736 24.4164026,228.766372 C25.5426596,231.747041 26.4564154,234.791582 27.2851705,237.902124 L31.1526947,237.814833 C30.8551928,231.70659 30.3451897,225.615379 29.9414371,219.505007 C32.6614541,219.164359 35.3814711,218.842872 38.1014881,218.544805 C37.9527372,214.352707 37.7827361,210.177641 37.4214839,206.006833 C39.3764961,202.770677 41.4802593,199.640975 43.8177739,196.679467 C44.1152757,192.291496 43.9452747,187.867331 44.5827786,183.521941 C46.1127882,183.221745 49.1728073,182.606449 50.7028169,182.287092 C50.9365684,187.164744 51.1490697,192.059429 51.3828211,196.937082 C54.1453384,199.894331 56.5678535,203.107067 58.9903687,206.347481 C58.3528647,208.817178 57.7153607,211.286876 57.0991069,213.777863 C57.5666098,214.946712 58.5441159,217.286537 59.032869,218.459643 C60.647879,218.502224 63.8778992,218.608677 65.4929093,218.651258 C65.3229083,225.462087 65.0679067,232.258013 65.0891568,239.090133 C69.5729348,237.003665 73.8654617,234.557387 78.072988,231.957817 C79.2629954,219.121778 77.7117357,206.047285 80.6867543,193.402859 C82.9392684,183.311165 85.1917824,173.21947 86.8492928,162.997903 C87.6355477,162.955322 89.1655573,162.89358 89.9305621,162.853128 C93.436834,183.632651 100.661879,203.962945 98.6856168,225.340731 C100.534378,225.274731 102.38314,225.25344 104.231901,225.210859 C104.274402,218.761968 106.016913,212.628177 110.649442,207.925106 C115.579472,212.39611 117.406984,218.653387 117.683236,225.127827 C121.784511,224.978793 125.885787,224.808469 129.987062,224.678597 C130.497066,198.959679 131.007069,173.24076 131.772074,147.521842 C131.878324,106.067119 135.108344,64.6379438 133.110832,23.1853494 C136.595854,23.2492209 140.102126,23.3556734 143.608398,23.1001874 C144.330902,19.8427416 143.608398,16.5640054 143.162145,13.3278501 L145.287158,11.5394485 C146.179664,7.79232129 147.13592,4.04519411 148.113426,0.31935743 L148.113426,0.31935743 L148.113426,0.31935743 Z M148.113426,0.31935743" id="Shape" fill="#E3E3E3"></path>
            <path d="M1007.93984,103.685655 C1007.74859,115.267684 1006.28233,220.144234 1006.28233,220.144236 C1006.28233,220.144234 1026.45225,223.356971 1027.25975,223.508134 C1027.76976,200.57827 1027.49351,213.201833 1028.08851,190.27197 C1040.64734,189.569384 1053.22742,189.486351 1065.80749,189.760998 C1065.9775,229.489062 1065.72249,190.994904 1065.82874,230.722969 C1069.93002,230.980584 1073.79754,232.236723 1077.00631,234.872486 C1078.47257,235.02152 1081.36259,235.321716 1082.82885,235.470749 C1082.8926,229.528572 1082.6376,223.569362 1083.4026,217.674024 C1085.10262,209.432473 1090.3514,202.513062 1096.02518,196.528304 C1096.34394,191.080066 1095.83393,185.459376 1097.23644,180.115461 C1099.57396,176.347044 1102.99523,173.387665 1105.9915,170.1728 C1108.98776,173.832636 1112.87654,177.07092 1114.3853,181.690958 C1115.3203,186.800677 1115.1078,192.03601 1115.3203,197.23089 C1119.50658,202.021252 1122.88535,207.452457 1125.39287,213.286053 C1125.58412,205.791799 1124.35161,155.013453 1128.21913,148.198366 C1132.10791,140.642369 1133.59542,132.230494 1135.80543,124.101783 C1137.33544,130.995646 1137.9517,138.255704 1141.13922,144.689692 C1142.98798,148.947791 1145.64424,153.13989 1145.30424,157.996252 C1145.30424,170.640677 1145.26174,225.953898 1145.30424,238.623871 C1148.02426,238.623871 1150.74428,238.623871 1153.48554,238.645162 C1153.29429,227.018422 1153.23054,229.596873 1153.65554,217.970133 C1161.9006,217.948843 1170.14565,217.948843 1178.36945,217.948843 C1178.6457,229.528743 1178.3907,226.88855 1179.49571,238.432257 C1180.57946,238.261933 1182.70448,237.942576 1183.78823,237.791413 C1184.21323,226.03906 1184.17073,185.840133 1184.08573,174.10907 C1188.01701,171.98002 1191.94828,169.82968 1195.85831,167.700631 C1200.32084,169.82968 1204.78336,171.937439 1209.24589,174.045198 C1209.50089,185.838004 1209.9259,226.058221 1209.8834,237.851027 C1210.92465,237.917027 1213.00716,238.042641 1214.04842,238.108641 C1213.92092,239.639428 1213.68717,242.662678 1213.55967,244.176433 C1219.3822,244.45108 1225.69349,243.582428 1230.89978,246.816454 C1231.45228,245.943544 1232.51479,244.216885 1233.04604,243.365265 C1237.29607,244.621404 1241.46109,246.156449 1245.66862,247.580783 C1245.54112,237.318764 1245.47737,205.721283 1245.77487,195.484813 C1255.01868,195.227198 1264.30499,195.056874 1273.52754,196.100108 C1273.54879,205.981027 1273.50629,237.214441 1273.54879,247.135812 C1275.71843,247.135812 1280.05346,247.178393 1282.22097,247.197554 C1282.09135,245.387862 1281.83847,241.787639 1281.71097,239.977947 C1284.36724,240.086529 1287.0235,240.169561 1289.70102,240.278143 C1289.33977,215.623749 1289.80939,176.725843 1290.42352,152.09274 C1294.03392,150.283048 1297.69107,148.496775 1301.32697,146.687083 C1305.42824,148.645809 1309.59114,150.538534 1313.81992,152.305645 C1313.77742,177.513591 1314.4808,216.94376 1314.22155,242.130416 C1315.62406,242.175126 1318.42907,242.238998 1319.85283,242.260288 C1319.91871,240.833825 1320.08871,237.959608 1320.17158,236.535274 C1327.92788,236.83547 1335.79043,236.577855 1342.99423,233.299119 C1350.60177,229.528572 1358.54932,234.127319 1365.89975,236.256368 C1365.66812,209.347311 1365.55974,217.991681 1366.091,191.078366 C1370.04565,187.269496 1373.55404,183.032688 1376.86481,178.644716 C1379.37233,178.876783 1381.88197,179.134398 1384.38949,179.409045 C1386.6845,183.94605 1389.40239,188.265891 1392.88954,192.017277 C1393.84367,216.222441 1392.78116,204.918888 1393.63329,229.124052 C1399.94671,223.207424 1405.25924,215.517297 1402.91748,206.449675 C1416.09468,200.978018 1429.58852,196.294109 1442.86985,191.101357 C1443.93236,192.03601 1444.99486,192.951501 1446.05737,193.888283 C1449.07489,191.20568 1451.83953,188.269721 1454.36617,185.140018 C1455.83031,185.010146 1458.74583,184.756789 1460.20996,184.629046 C1460.63284,185.929896 1461.48497,188.546497 1461.90785,189.847347 C1474.82793,194.105446 1486.73225,200.724661 1499.03395,206.451804 C1498.6727,213.266892 1498.73433,220.077721 1498.95108,226.914099 C1507.4065,232.000398 1516.07656,236.726888 1524.47249,241.900479 C1524.38536,239.047552 1524.30249,236.175465 1524.21536,233.322538 C1533.07667,229.575411 1543.78886,222.464386 1552.84141,229.701025 C1553.05391,214.50174 1552.24853,170.834592 1553.48104,155.67363 C1554.9048,146.603879 1554.81768,137.385095 1554.62642,128.232311 C1562.25522,128.187601 1569.88402,128.232311 1577.53194,128.294053 C1576.59906,134.406554 1575.59818,140.59783 1576.29944,146.793364 C1580.46659,169.235676 1576.02531,220.716436 1579.82696,243.19707 C1581.69909,247.987431 1585.11824,251.904882 1588.13576,255.996916 C1595.44793,251.589783 1603.71211,249.392604 1612.21216,249.011504 C1612.36091,243.710171 1612.51179,238.387547 1612.76466,233.086214 C1617.95182,230.128964 1623.02848,226.95668 1628.04563,223.722654 C1628.72139,208.923631 1629.06351,194.107575 1628.93814,179.308552 C1628.72139,167.428455 1629.83064,183.867189 1627.65888,172.091416 C1628.02013,170.922568 1628.74689,168.601904 1629.08264,167.430927 C1627.93726,166.217369 1625.62099,163.747671 1624.47136,162.531984 C1633.78104,159.915382 1642.92073,156.40245 1652.52366,154.975987 C1661.17247,156.572774 1669.16252,160.660549 1677.62219,163.064246 C1675.0913,177.946303 1675.4313,164.66282 1676.62131,179.649199 C1677.13132,197.213858 1676.75094,214.778517 1676.75094,232.343175 C1680.83096,235.877398 1684.93224,239.41162 1689.05264,242.926681 C1689.07389,245.545412 1689.11427,248.162013 1689.18227,250.780744 C1692.53979,250.868035 1695.91856,250.951068 1699.29733,251.05965 L1699.29733,351.889307 L849.289891,351.889307 L849.289891,234.663839 C854.283673,230.514322 859.851207,226.126351 866.800001,227.212166 C867.777507,230.192835 875.746307,234.791582 876.575062,237.902124 L880.442586,237.814833 C880.145084,231.70659 879.635081,225.615379 879.231329,219.505007 C881.951346,219.164359 884.671363,218.842872 887.39138,218.544805 C887.242629,214.352707 887.072628,103.510974 886.711375,99.340166 C888.666387,96.1040107 905.857745,96.4404005 908.28026,99.6808139 C907.642756,102.150511 907.005252,211.286876 906.388998,213.777863 C906.856501,214.946712 907.834007,217.286537 908.32276,218.459643 C909.93777,218.502224 913.167791,218.608677 914.782801,218.651258 C914.6128,225.462087 914.357798,232.258013 914.379048,239.090133 C918.862826,237.003665 923.155353,234.557387 927.362879,231.957817 C928.552887,219.121778 929.976649,193.402855 929.976646,193.402859 C929.976643,193.402864 936.925437,184.186458 936.139184,184.331236 C936.925439,184.288655 947.210501,164.307118 947.975505,164.266666 C947.210501,164.307115 949.951771,203.962945 947.975508,225.340731 C949.82427,225.274731 951.673031,225.25344 953.521793,225.210859 C953.564293,218.761968 955.306804,184.183732 959.939333,179.480662 C964.869364,183.951666 966.696875,218.653387 966.973127,225.127827 C971.074403,224.978793 975.175678,224.808469 979.276954,224.678597 C979.786957,198.959679 984.398236,142.860166 982.400723,101.407572 C985.885745,101.471443 1005.04982,102.663711 1007.93984,103.685655 Z M1007.93984,103.685655" id="Shape" fill="#E3E3E3"></path>
        </g>
    </g>
</svg>