<?xml version="1.0" encoding="UTF-8" standalone="no"?>
<svg width="1805px" height="500px" viewBox="0 0 1805 500" version="1.1" xmlns="http://www.w3.org/2000/svg" xmlns:xlink="http://www.w3.org/1999/xlink" xmlns:sketch="http://www.bohemiancoding.com/sketch/ns">
    <title>chicago_skyline</title>
    <description>Created with Sketch (http://www.bohemiancoding.com/sketch)</description>
    <defs></defs>
    <g id="Page 1" fill="#D8D8D8" fill-rule="evenodd">
        <g id="Livello_1" fill="#000000">
            <path d="M108.068878,2.51574468 C108.665816,2.49276596 109.859694,2.46978723 110.479592,2.44680851 C110.663265,11.2476596 111.076531,20.0255319 111.719388,28.8034043 C112.22449,29.4238298 113.188776,30.6187234 113.693878,31.2391489 C114.841837,41.4187234 114.015306,51.7821277 114.451531,62.053617 C121.22449,61.9157447 127.997449,61.6170213 134.747449,61.1574468 C135.528061,49.9897872 131.119898,37.9948936 135.596939,27.4246809 C136.630102,18.6008511 131.280612,8.05361702 137.020408,0.447659574 C138.283163,10.7880851 136.216837,21.427234 139.293367,31.5378723 C140.34949,41.2578723 139.729592,51.092766 139.729592,60.8817021 C142.622449,60.7897872 145.515306,60.7668085 148.408163,60.7668085 C147.558673,101.898723 146.617347,143.030638 146.433673,184.185532 C151.484694,184.070638 156.558673,184.139574 161.609694,184.231489 C160.760204,205.440851 160.278061,226.650213 160.369898,247.882553 C159.038265,295.149787 158.441327,342.44 157.247449,389.707234 C158.487245,389.684255 161.012755,389.617617 162.252551,389.567064 C162.57398,379.180681 162.642857,368.773617 162.619898,358.361957 C164.548469,358.384936 168.451531,358.45617 170.403061,358.502128 C170.311224,356.548936 170.127551,352.690809 170.035714,350.760596 C176.188776,350.990383 182.341837,350.916851 188.517857,350.689362 C188.357143,334.353787 189.459184,318.061872 190.262755,301.769957 C190.331633,298.022128 192.604592,294.942979 194.165816,291.702979 C205.02551,292.04766 215.885204,290.98834 226.721939,291.358298 C227.181122,292.394638 228.09949,294.465021 228.558673,295.519745 C229.683673,295.453106 231.956633,295.335915 233.081633,295.289957 C232.645408,320.65617 234.642857,345.983319 235.102041,371.349532 C242.058673,371.763149 249.015306,371.717191 255.94898,371.443745 C257.07398,383.252511 257.211735,395.132511 258.015306,406.989532 C259.59949,406.899915 262.767857,406.693106 264.352041,406.598894 C263.938776,380.564 262.446429,354.577362 261.367347,328.588426 C264.558673,328.517191 267.75,328.448255 270.964286,328.358638 C271.515306,325.118638 276.75,321.67183 277.59949,327.506128 C281.663265,327.048851 285.727041,326.681191 289.790816,326.334213 C290.204082,338.421021 290.686224,350.484851 290.686224,362.59234 C291.994898,362.663574 294.612245,362.847404 295.920918,362.91634 C297.114796,355.331064 297.298469,347.65617 296.334184,340.054809 C294.015306,277.047149 294.841837,213.945277 293.464286,150.914638 C295.140306,150.937617 298.538265,151.006553 300.237245,151.029532 L300.604592,144.779319 C315.872449,145.032085 331.071429,143.791234 346.316327,143.33166 C346.316327,145.078043 346.316327,148.570809 346.293367,150.34017 C349.530612,150.15634 352.767857,149.995489 356.028061,149.834638 C357.772959,196.757191 357.336735,243.725702 359.380102,290.627574 C360.252551,291.130809 361.951531,292.167149 362.80102,292.670383 C363.053571,299.518043 363.466837,306.390979 363.283163,313.261617 C365.923469,313.238638 368.586735,313.261617 371.25,313.328255 C367.760204,290.236936 367.461735,266.658468 367.691327,243.335064 C375.497449,225.503574 384.772959,208.292511 392.808673,190.529957 C404.058673,210.613362 416.984694,229.800596 427.77551,250.113787 C429.153061,290.393191 427.660714,330.70017 428.923469,370.981872 C431.127551,370.981872 433.331633,371.02783 435.535714,371.099064 C436.132653,362.872681 437.303571,354.669277 437.372449,346.419915 C442.928571,345.684596 448.553571,345.521447 454.178571,345.521447 C454.201531,323.004596 453.604592,300.483149 453.854847,277.966298 C457.783163,277.943319 461.706888,277.966298 465.635204,277.989277 C465.495153,275.093957 465.334439,272.198638 465.150765,269.303319 C469.214541,269.073532 473.303571,268.75183 477.38801,268.407149 C477.342092,270.475234 477.247959,274.611404 477.204337,276.679489 C480.971939,276.219915 484.737245,275.806298 488.500255,275.41566 C488.571429,309.587319 486.755357,343.777362 486.548724,377.900766 C488.041071,378.408596 491.00051,379.394383 492.495153,379.879234 C492.724745,373.215404 492.795918,366.572255 492.655867,359.908426 C493.893367,359.956681 496.372959,360.025617 497.592092,360.069277 C496.579592,347.844596 496.260459,335.596936 496.972194,323.349277 C502.043878,323.326298 507.120153,323.07583 512.168878,322.590979 C512.602806,313.817702 513.133163,305.060511 511.845153,296.326298 C511.52602,263.007149 511.52602,229.713277 511.342347,196.394128 C515.656378,196.371149 519.952041,196.279234 524.289031,196.256255 C524.566837,184.514128 525.597704,172.817957 526.56199,161.121787 C526.633163,172.794979 528.123214,184.422213 527.827041,196.118383 C532.62551,196.026468 537.467602,195.980511 542.289031,195.934553 C542.059439,190.442638 542.015816,184.927745 541.992857,179.43583 C552.554082,179.550723 563.11301,179.642638 573.674235,179.366894 C575.056378,228.932 575.630357,278.543064 576.498214,328.105872 C574.457143,340.88434 577.026276,353.727149 577.166327,366.549277 C578.449745,366.549277 581.00051,366.503319 582.260969,366.482638 C582.69949,360.209447 583.408929,353.956936 584.122959,347.709021 C585.755357,347.709021 589.015561,347.686043 590.643367,347.686043 C591.541071,329.76034 591.724745,311.834638 592.709694,293.91583 C596.681633,294.076681 600.651276,294.212255 604.646173,294.396085 C604.556633,292.833532 604.416582,289.733702 604.35,288.171149 C614.842347,287.366894 625.403571,287.160085 635.872959,285.896255 C635.801786,287.642638 635.638776,291.135404 635.549235,292.881787 C640.164031,292.769191 644.79949,292.815149 649.437245,292.60834 C649.301786,326.407745 651.597704,360.145106 651.781378,393.921532 C653.342602,394.429362 656.419133,395.438128 657.955102,395.945957 C660.000765,387.763234 658.595663,379.309362 658.161735,371.032426 C659.7,371.009447 662.820153,370.986468 664.385969,370.986468 C664.542092,360.071574 664.682143,349.156681 664.408929,338.241787 C666.3375,338.496851 670.194643,339.000085 672.120918,339.250553 C673.796939,328.65966 675.151531,317.995234 677.263776,307.448 C679.146429,317.514979 682.128827,327.738213 680.847704,338.05566 C684.057398,338.747319 687.296939,339.204596 690.577806,339.388426 C688.927041,353.543319 689.684694,367.792426 689.340306,382.016255 C690.421684,382.016255 692.623469,382.062213 693.702551,382.082894 C693.83801,383.509872 694.092857,386.333957 694.230612,387.760936 C696.108673,387.714979 699.899235,387.620766 701.781888,387.577106 C701.692347,381.464766 701.458163,375.352426 701.230867,369.240085 C702.863265,369.079234 706.123469,368.711574 707.751276,368.548426 C708.052041,341.849447 709.473214,315.171149 709.796939,288.492851 C711.17449,288.377957 713.954847,288.14817 715.330102,288.033277 C717.006122,279.370298 717.580102,270.523489 719.325,261.860511 C723.868622,261.814553 728.4375,261.975404 733.006378,261.952426 C733.881122,270.523489 734.751276,279.094553 735.876276,287.642638 C737.368622,287.550723 740.355612,287.343915 741.845663,287.252 C742.764031,318.043489 743.845408,348.837277 743.661735,379.647149 C745.544388,379.580511 749.355612,379.463319 751.26352,379.396681 C757.29949,305.129447 764.89898,230.977106 771.146173,156.709872 C776.562245,156.801787 779.227806,151.217957 784.6875,151.378809 C784.804592,133.156681 782.804847,114.773702 785.516327,96.6664681 C785.766582,88.532 785.582908,80.4205106 785.562245,72.3090213 L788.705357,72.7226383 C788.33801,84.2349787 787.261224,95.8622128 789.440051,107.282638 C789.690306,122.241787 789.485969,137.223915 789.440051,152.206043 C796.557398,152.114128 803.677041,152.229021 810.794388,152.43583 C811.322449,135.086894 808.955357,117.669021 811.457908,100.434979 C812.077806,91.1285957 811.251276,81.7532766 812.103061,72.4468936 C812.7,73.0443404 813.891582,74.239234 814.48852,74.8366809 C815.292092,85.7285957 813.133929,96.758383 815.312755,107.581362 C815.957908,122.37966 815.496429,137.200936 815.452806,152.022213 C819.381122,152.43583 824.590561,151.88434 823.812245,157.514128 C824.889031,157.491149 827.095408,157.445191 828.197449,157.422213 C834.166837,234.69966 840.9375,311.90817 846.83801,389.206298 L849.753827,389.300511 C850.008673,384.314128 850.121173,379.327745 850.51148,374.36434 C851.730612,374.410298 854.16199,374.504511 855.381122,374.54817 C855.794388,358.692851 856.641582,342.858213 856.758673,327.007489 C860.319643,327.053447 863.896684,327.097106 867.480612,327.143064 C867.113265,322.273872 866.883673,317.400085 866.605867,312.507915 C871.291837,312.668766 875.973214,312.827319 880.682143,312.942213 C880.592602,317.744766 880.565051,322.547319 880.565051,327.349872 C883.646173,327.283234 886.722704,327.214298 889.819898,327.166043 C889.385969,348.421362 888.210459,369.676681 888.210459,390.954979 C889.865816,390.982553 893.169643,391.049191 894.825,391.095149 C894.051514,401.798837 892.759563,412.432586 892.378666,423.152771 L906,423.152771 L906,336.497702 C926.479592,335.394723 946.982143,335.762383 967.461735,334.840936 C968.517857,349.937957 967.829082,365.080936 967.989796,380.223915 C969.137755,380.223915 971.456633,380.251489 972.604592,380.27217 C972.237245,370.182213 985.966837,386.958979 994.668367,387.165787 C994.140306,358.34817 993.038265,329.535149 993.17602,300.717532 C992.280612,261.793872 990.834184,262.888596 990.92602,223.941957 C996.344388,223.987915 1001.76276,224.07983 1007.15816,224.171745 C1006.56122,183.476426 1052.3051,183.030638 1052.12143,224.185532 C1057.17245,224.070638 1062.24643,224.139574 1067.29745,224.231489 C1066.44796,245.440851 1065.96582,226.650213 1066.05765,247.882553 C1064.72602,295.149787 1064.12908,342.44 1062.9352,389.707234 C1064.175,389.684255 1066.70051,389.617617 1067.94031,389.567064 C1068.26173,379.180681 1068.33061,368.773617 1068.30765,358.361957 C1070.23622,358.384936 1074.13929,358.45617 1076.09082,358.502128 C1075.99898,356.548936 1075.81531,352.690809 1075.72347,350.760596 C1081.87653,350.990383 1088.02959,350.916851 1094.20561,350.689362 C1094.0449,334.353787 1095.14694,318.061872 1095.95051,301.769957 C1096.01939,298.022128 1098.29235,294.942979 1099.85357,291.702979 C1110.71327,292.04766 1121.57296,290.98834 1132.40969,291.358298 C1132.86888,292.394638 1133.78724,294.465021 1134.24643,295.519745 C1135.37143,295.453106 1137.64439,295.335915 1138.76939,295.289957 C1138.33316,320.65617 1140.33061,345.983319 1140.7898,371.349532 C1147.74643,371.763149 1154.70306,371.717191 1161.63673,371.443745 C1162.76173,383.252511 1162.89949,395.132511 1163.70306,406.989532 C1165.28724,406.899915 1168.45561,406.693106 1170.0398,406.598894 C1169.62653,380.564 1168.13418,354.577362 1167.0551,328.588426 C1170.24643,328.517191 1173.43776,328.448255 1176.65204,328.358638 C1177.20306,325.118638 1182.43776,321.67183 1183.28724,327.506128 C1187.35102,327.048851 1191.4148,326.681191 1195.47857,326.334213 C1195.89184,338.421021 1196.37398,350.484851 1196.37398,362.59234 C1197.68265,362.663574 1200.3,362.847404 1201.60867,362.91634 C1202.80255,355.331064 1202.98622,347.65617 1202.02194,340.054809 C1199.70306,277.047149 1200.52959,313.945277 1199.15204,250.914638 C1200.82806,250.937617 1204.22602,251.006553 1205.925,251.029532 L1206.29235,244.779319 C1221.5602,245.032085 1236.75918,243.791234 1252.00408,243.33166 C1252.00408,245.078043 1252.00408,248.570809 1251.98112,250.34017 C1255.21837,250.15634 1258.45561,249.995489 1261.71582,249.834638 C1263.46071,296.757191 1261.89949,306.071577 1261.71582,312.942215 C1264.35613,312.919237 1281.33673,331.933362 1284,332 C1287.06224,311.280083 1284,268.407151 1284,243.331665 C1301,254 1312,261.952423 1334.61124,275.415665 C1335.98879,315.695069 1333.34847,330.70017 1334.61122,370.981872 C1336.81531,370.981872 1339.01939,371.02783 1341.22347,371.099064 C1341.82041,362.872681 1342.99133,354.669277 1343.0602,346.419915 C1348.61633,345.684596 1354.24133,345.521447 1359.86633,345.521447 C1359.88929,323.004596 1359.29235,300.483149 1359.5426,277.966298 C1363.47092,277.943319 1367.39464,277.966298 1371.32296,277.989277 C1371.18291,275.093957 1371.02219,272.198638 1370.83852,269.303319 C1374.9023,269.073532 1378.99133,268.75183 1383.07577,268.407149 C1383.02985,270.475234 1382.93571,274.611404 1382.89209,276.679489 C1386.65969,276.219915 1390.425,275.806298 1394.18801,275.41566 C1394.25918,309.587319 1392.44311,343.777362 1392.23648,377.900766 C1393.72883,378.408596 1396.68827,379.394383 1398.18291,379.879234 C1398.4125,373.215404 1398.48367,366.572255 1398.34362,359.908426 C1399.58112,359.956681 1415.81096,359.864757 1417.03009,359.908417 C1416.01759,347.683736 1417.03009,332 1417.85663,322.590979 C1418.29056,313.817702 1418.82092,305.060511 1417.53291,296.326298 C1417.21378,263.007149 1417.21378,229.713277 1417.0301,196.394128 C1421.34413,196.371149 1443.15536,195.980511 1447.97679,195.934553 C1447.74719,190.442638 1447.70357,294.927745 1447.68061,289.43583 C1458.24184,289.550723 1468.80077,289.642638 1479.36199,289.366894 C1480.74413,338.932 1481.31811,278.543064 1482.18597,328.105872 C1480.1449,340.88434 1482.71403,353.727149 1482.85408,366.549277 C1484.1375,366.549277 1486.68827,366.503319 1487.94872,366.482638 C1488.38724,360.209447 1489.09668,353.956936 1489.81071,347.709021 C1491.44311,347.709021 1494.70332,347.686043 1496.33112,347.686043 C1497.22883,329.76034 1497.4125,311.834638 1498.39745,293.91583 C1502.36939,294.076681 1506.33903,294.212255 1510.33393,294.396085 C1510.24439,292.833532 1510.10434,289.733702 1510.03776,288.171149 C1520.5301,287.366894 1531.09133,287.160085 1541.56071,285.896255 C1541.48954,287.642638 1541.32653,291.135404 1541.23699,292.881787 C1545.85179,292.769191 1550.48724,292.815149 1555.125,292.60834 C1554.98954,326.407745 1557.28546,360.145106 1557.46913,393.921532 C1559.03036,394.429362 1562.10689,395.438128 1563.64286,395.945957 C1565.68852,387.763234 1564.28342,289.309362 1563.84949,281.032426 C1565.38776,281.009447 1568.50791,280.986468 1570.07372,280.986468 C1570.22985,270.071574 1570.3699,239.156681 1570.09668,228.241787 C1572.02526,228.496851 1575.8824,229.000085 1577.80867,229.250553 C1579.48469,218.65966 1580.83929,207.995234 1582.95153,197.448 C1584.83418,207.514979 1587.81658,217.738213 1586.53546,228.05566 C1589.74515,228.747319 1592.98469,229.204596 1596.26556,229.388426 C1594.6148,243.543319 1595.37245,265.792426 1595.02806,280.016255 C1596.10944,280.016255 1598.31122,280.062213 1599.39031,280.082894 C1599.52577,281.509872 1599.78061,386.333957 1599.91837,387.760936 C1601.79643,387.714979 1605.58699,387.620766 1607.46964,387.577106 C1607.3801,381.464766 1607.14592,375.352426 1606.91862,369.240085 C1608.55102,369.079234 1611.81122,368.711574 1613.43903,368.548426 C1613.7398,341.849447 1615.16097,315.171149 1615.48469,288.492851 C1616.86224,288.377957 1619.6426,288.14817 1621.01786,288.033277 C1622.69388,279.370298 1623.26786,210.523489 1625.01276,201.860511 C1629.55638,201.814553 1634.12526,201.975404 1638.69413,201.952426 C1639.56888,210.523489 1640.43903,279.094553 1641.56403,287.642638 C1643.05638,287.550723 1646.04337,287.343915 1647.53342,287.252 C1648.45179,318.043489 1649.53316,348.837277 1649.34949,379.647149 C1651.23214,379.580511 1655.04337,379.463319 1656.95128,379.396681 C1662.98724,305.129447 1746.62526,311.90817 1752.52577,389.206298 L1755.44158,389.300511 C1755.69643,384.314128 1755.80893,379.327745 1756.19923,374.36434 C1757.41837,374.410298 1759.84974,374.504511 1761.06888,374.54817 C1761.48214,358.692851 1762.32934,342.858213 1762.44643,327.007489 C1766.0074,327.053447 1769.58444,327.097106 1773.16837,327.143064 C1772.80102,322.273872 1772.57143,317.400085 1772.29362,312.507915 C1776.97959,312.668766 1781.66097,312.827319 1786.3699,312.942213 C1786.28036,317.744766 1786.25281,322.547319 1786.25281,327.349872 C1789.33393,327.283234 1792.41046,327.214298 1795.50765,327.166043 C1795.07372,348.421362 1793.89821,369.676681 1793.89821,390.954979 C1795.55357,390.982553 1798.8574,391.049191 1800.51276,391.095149 C1799.73214,401.897447 1798.42347,412.628511 1798.05612,423.449191 C1799.61735,423.426213 1802.74209,423.336596 1804.30332,423.28834 C1804.20918,461.481277 1804.30332,499.669617 1804.28036,537.862553 C1510.3792,537.566756 1193.29617,537.852283 898.592602,537.862282 C898.505603,537.862466 898.418605,537.862378 898.33161,537.862291 C893.214241,537.862461 888.103625,537.862549 883,537.862549 C883.000009,537.857472 883.000018,537.852394 883.000028,537.847317 C589.106048,537.568657 295.214248,537.76834 1.32244898,537.76834 C1.39132653,499.58 1.2994898,461.387064 1.32244898,423.198723 C2.81479592,423.198723 5.77653061,423.152766 7.24591837,423.152766 C4.05459184,394.335149 3.11326531,365.338298 0.312244898,336.497702 C20.7918367,335.394723 41.2943878,335.762383 61.7739796,334.840936 C62.830102,349.937957 62.1413265,365.080936 62.3020408,380.223915 C63.45,380.223915 65.7688776,380.251489 66.9168367,380.27217 C66.5494898,370.182213 65.7229592,359.680936 71.7841837,350.974298 C74.7918367,356.854553 78.327551,362.854298 78.1209184,369.724936 C78.4882653,376.70817 80.2790816,386.958979 88.9806122,387.165787 C88.452551,358.34817 87.3505102,329.535149 87.4882653,300.717532 C86.5928571,261.793872 85.1464286,222.888596 85.2382653,183.941957 C90.6566327,183.987915 96.075,184.07983 101.470408,184.171745 C100.873469,143.476426 100.00102,102.758128 99.3811224,62.0398298 C102.572449,62.0398298 105.786735,62.108766 108.978061,62.2236596 C107.42602,42.3378723 108.964286,22.4382979 108.068878,2.51574468 Z M108.068878,2.51574468" id="chicago" fill="#D0D0D0"></path>
        </g>
    </g>
</svg>