<?xml version="1.0" encoding="UTF-8" standalone="no"?>
<svg width="1631px" height="466px" viewBox="0 0 1631 466" version="1.1" xmlns="http://www.w3.org/2000/svg" xmlns:xlink="http://www.w3.org/1999/xlink" xmlns:sketch="http://www.bohemiancoding.com/sketch/ns">
    <title>complete_skyline</title>
    <description>Created with Sketch (http://www.bohemiancoding.com/sketch)</description>
    <defs></defs>
    <g id="Page 1" fill="#D8D8D8" fill-rule="evenodd">
        <path d="M54.5586716,457 C-30.0000002,465.847321 12.2257729,278.773789 14.517857,278.689362 C14.357143,262.353787 15.459184,246.061872 16.262755,229.769957 C16.331633,226.022128 18.604592,222.942979 20.165816,219.702979 C31.02551,220.04766 41.885204,218.98834 52.721939,219.358298 C53.181122,220.394638 54.09949,222.465021 54.558673,223.519745 C58.645408,248.65617 60.642857,273.983319 61.102041,299.349532 C68.058673,299.763149 75.015306,299.717191 81.94898,299.443745 C83.07398,311.252511 83.211735,323.132511 84.015306,334.989532 C85.59949,334.899915 88.767857,334.693106 90.352041,334.598894 C89.938776,308.564 88.446429,282.577362 87.367347,256.588426 C90.558673,256.517191 93.75,256.448255 96.964286,256.358638 C97.515306,253.118638 102.75,249.67183 103.59949,255.506128 C107.663265,255.048851 111.727041,254.681191 115.790816,254.334213 C116.204082,266.421021 116.686224,278.484851 116.686224,290.59234 C117.994898,290.663574 120.612245,290.847404 121.920918,290.91634 C123.114796,283.331064 123.298469,275.65617 122.334184,268.054809 C120.015306,205.047149 120.841837,141.945277 119.464286,78.914638 C121.140306,78.937617 124.538265,79.006553 126.237245,79.029532 L126.604592,72.779319 C141.872449,73.032085 157.071429,71.791234 172.316327,71.33166 C172.316327,73.078043 172.316327,76.570809 172.293367,78.34017 C175.530612,78.15634 178.767857,77.995489 182.028061,77.834638 C183.772959,124.757191 183.336735,171.725702 185.380102,218.627574 C186.252551,219.130809 187.951531,220.167149 188.80102,220.670383 C189.053571,227.518043 189.466837,234.390979 189.283163,241.261617 C191.923469,241.238638 194.586735,241.261617 197.25,241.328255 C193.760204,218.236936 193.461735,194.658468 193.691327,171.335064 C201.497449,153.503574 210.772959,136.292511 218.808673,118.529957 C230.058673,138.613362 242.984694,157.800596 253.77551,178.113787 C255.153061,218.393191 253.660714,258.70017 254.923469,298.981872 C257.127551,298.981872 259.331633,299.02783 261.535714,299.099064 C262.132653,290.872681 263.303571,282.669277 263.372449,274.419915 C268.928571,273.684596 274.553571,273.521447 280.178571,273.521447 C280.201531,251.004596 279.604592,228.483149 279.854847,205.966298 C283.783163,205.943319 287.706888,205.966298 291.635204,205.989277 C291.495153,203.093957 291.334439,200.198638 291.150765,197.303319 C295.214541,197.073532 299.303571,196.75183 303.38801,196.407149 C303.342092,198.475234 303.247959,202.611404 303.204337,204.679489 C306.971939,204.219915 310.737245,203.806298 314.500255,203.41566 C314.571429,237.587319 312.755357,271.777362 312.548724,305.900766 C314.041071,306.408596 317.00051,307.394383 318.495153,307.879234 C318.724745,301.215404 318.795918,294.572255 318.655867,287.908426 C319.893367,287.956681 322.372959,288.025617 323.592092,288.069277 C322.579592,275.844596 322.260459,263.596936 322.972194,251.349277 C328.043878,251.326298 333.120153,251.07583 338.168878,250.590979 C338.602806,241.817702 339.133163,233.060511 337.845153,224.326298 C337.52602,191.007149 337.52602,157.713277 337.342347,124.394128 C341.656378,124.371149 345.952041,124.279234 350.289031,124.256255 C350.566837,112.514128 351.597704,100.817957 352.56199,89.121787 C352.633163,100.794979 354.123214,112.422213 353.827041,124.118383 C358.62551,124.026468 363.467602,123.980511 368.289031,123.934553 C368.059439,118.442638 368.015816,112.927745 367.992857,107.43583 C378.554082,107.550723 389.11301,107.642638 399.674235,107.366894 C401.056378,156.932 401.630357,206.543064 402.498214,256.105872 C400.457143,268.88434 403.026276,281.727149 403.166327,294.549277 C404.449745,294.549277 407.00051,294.503319 408.260969,294.482638 C408.69949,288.209447 409.408929,281.956936 410.122959,275.709021 C411.755357,275.709021 415.015561,275.686043 416.643367,275.686043 C417.541071,257.76034 417.724745,239.834638 418.709694,221.91583 C422.681633,222.076681 426.651276,222.212255 430.646173,222.396085 C430.556633,220.833532 430.416582,217.733702 430.35,216.171149 C440.842347,215.366894 451.403571,215.160085 461.872959,213.896255 C461.801786,215.642638 461.638776,219.135404 461.549235,220.881787 C466.164031,220.769191 470.79949,220.815149 475.437245,220.60834 C475.301786,254.407745 477.597704,288.145106 477.781378,321.921532 C479.342602,322.429362 482.419133,323.438128 483.955102,323.945957 C486.000765,315.763234 484.595663,307.309362 484.161735,299.032426 C485.7,299.009447 488.820153,298.986468 490.385969,298.986468 C490.542092,288.071574 490.682143,277.156681 490.408929,266.241787 C492.3375,266.496851 496.194643,267.000085 498.120918,267.250553 C499.796939,256.65966 501.151531,245.995234 503.263776,235.448 C505.146429,245.514979 508.128827,255.738213 506.847704,266.05566 C510.057398,266.747319 513.296939,267.204596 516.577806,267.388426 C514.927041,281.543319 515.684694,295.792426 515.340306,310.016255 C519.83801,311.509872 520.092857,314.333957 520.230612,315.760936 C522.108673,315.714979 525.899235,315.620766 527.781888,315.577106 C527.692347,309.464766 527.458163,303.352426 527.230867,297.240085 C528.863265,297.079234 532.123469,296.711574 533.751276,296.548426 C534.052041,269.849447 535.473214,243.171149 535.796939,216.492851 C537.17449,216.377957 539.954847,216.14817 541.330102,216.033277 C543.006122,207.370298 543.580102,198.523489 545.325,189.860511 C549.868622,189.814553 554.4375,189.975404 559.006378,189.952426 C559.881122,198.523489 560.751276,207.094553 561.876276,215.642638 C563.368622,215.550723 566.355612,215.343915 567.845663,215.252 C568.764031,246.043489 569.845408,276.837277 569.661735,307.647149 C571.544388,307.580511 575.355612,307.463319 577.26352,307.396681 C583.29949,233.129447 590.89898,158.977106 597.146173,84.709872 C602.562245,84.801787 605.227806,79.217957 610.6875,79.378809 C610.804592,61.156681 608.804847,42.773702 611.516327,24.6664681 C611.766582,16.532 611.582908,8.4205106 611.562245,0.3090213 C614.33801,12.2349787 613.261224,23.8622128 615.440051,35.282638 C615.690306,50.241787 615.485969,65.223915 615.440051,80.206043 C622.557398,80.114128 629.677041,80.229021 636.794388,80.43583 C637.322449,63.086894 634.955357,45.669021 637.457908,28.434979 C638.077806,19.1285957 637.251276,9.7532766 638.103061,0.4468936 C638.7,1.0443404 639.891582,2.239234 640.48852,2.8366809 C641.292092,13.7285957 639.133929,24.758383 641.312755,35.581362 C641.957908,50.37966 641.496429,65.200936 641.452806,80.022213 C645.381122,80.43583 650.590561,79.88434 649.812245,85.514128 C660.166837,162.69966 666.9375,239.90817 672.83801,317.206298 C676.008673,312.314128 676.121173,307.327745 676.51148,302.36434 C677.730612,302.410298 680.16199,302.504511 681.381122,302.54817 C681.794388,286.692851 682.641582,270.858213 682.758673,255.007489 C686.319643,255.053447 689.896684,255.097106 693.480612,255.143064 C693.113265,250.273872 692.883673,245.400085 692.605867,240.507915 C697.291837,240.668766 701.973214,240.827319 706.682143,240.942213 C706.592602,245.744766 706.565051,250.547319 706.565051,255.349872 C709.646173,255.283234 712.722704,255.214298 715.819898,255.166043 C715.385969,276.421362 714.210459,297.676681 714.210459,318.954979 C715.865816,318.982553 719.169643,319.049191 720.825,319.095149 C720.051514,329.798837 718.759563,340.432586 718.378666,351.152771 L732,351.152771 L732,264.497702 C752.479592,263.394723 772.982143,263.762383 793.461735,262.840936 C794.517857,277.937957 793.829082,293.080936 793.989796,308.223915 C798.237245,298.182213 811.966837,314.958979 820.668367,315.165787 C820.140306,286.34817 819.038265,257.535149 819.17602,228.717532 C818.280612,189.793872 816.834184,190.888596 816.92602,151.941957 C822.344388,151.987915 827.76276,152.07983 833.15816,152.171745 C832.56122,111.476426 878.3051,111.030638 878.12143,152.185532 C883.17245,152.070638 888.24643,152.139574 893.29745,152.231489 C892.44796,173.440851 891.96582,154.650213 892.05765,175.882553 C890.72602,223.149787 890.12908,270.44 888.9352,317.707234 C890.175,317.684255 892.70051,317.617617 893.94031,317.567064 C894.26173,307.180681 894.33061,296.773617 894.30765,286.361957 C896.23622,286.384936 900.13929,286.45617 902.09082,286.502128 C901.99898,284.548936 901.81531,280.690809 901.72347,278.760596 C907.87653,278.990383 914.02959,278.916851 920.20561,278.689362 C920.0449,262.353787 921.14694,246.061872 921.95051,229.769957 C922.01939,226.022128 924.29235,222.942979 925.85357,219.702979 C936.71327,220.04766 947.57296,218.98834 958.40969,219.358298 C958.86888,220.394638 959.78724,222.465021 960.24643,223.519745 C964.33316,248.65617 966.33061,273.983319 966.7898,299.349532 C973.74643,299.763149 980.70306,299.717191 987.63673,299.443745 C988.76173,311.252511 988.89949,323.132511 989.70306,334.989532 C991.28724,334.899915 994.45561,334.693106 996.0398,334.598894 C995.62653,308.564 994.13418,282.577362 993.0551,256.588426 C996.24643,256.517191 999.43776,256.448255 1002.65204,256.358638 C1003.20306,253.118638 1008.43776,249.67183 1009.28724,255.506128 C1013.35102,255.048851 1017.4148,254.681191 1021.47857,254.334213 C1021.89184,266.421021 1022.37398,278.484851 1022.37398,290.59234 C1023.68265,290.663574 1026.3,290.847404 1027.60867,290.91634 C1028.80255,283.331064 1028.98622,275.65617 1028.02194,268.054809 C1025.70306,205.047149 1026.52959,241.945277 1025.15204,178.914638 C1026.82806,178.937617 1030.22602,179.006553 1031.925,179.029532 L1032.29235,172.779319 C1047.5602,173.032085 1062.75918,171.791234 1078.00408,171.33166 C1078.00408,173.078043 1078.00408,176.570809 1077.98112,178.34017 C1081.21837,178.15634 1084.45561,177.995489 1087.71582,177.834638 C1089.46071,224.757191 1087.89949,234.071577 1087.71582,240.942215 C1090.35613,240.919237 1107.33673,259.933362 1110,260 C1113.06224,239.280083 1110,196.407151 1110,171.331665 C1127,182 1138,189.952423 1160.61124,203.415665 C1161.98879,243.695069 1159.34847,258.70017 1160.61122,298.981872 C1162.81531,298.981872 1165.01939,299.02783 1167.22347,299.099064 C1167.82041,290.872681 1168.99133,282.669277 1169.0602,274.419915 C1174.61633,273.684596 1180.24133,273.521447 1185.86633,273.521447 C1185.88929,251.004596 1185.29235,228.483149 1185.5426,205.966298 C1189.47092,205.943319 1193.39464,205.966298 1197.32296,205.989277 C1197.18291,203.093957 1197.02219,200.198638 1196.83852,197.303319 C1200.9023,197.073532 1204.99133,196.75183 1209.07577,196.407149 C1209.02985,198.475234 1208.93571,202.611404 1208.89209,204.679489 C1212.65969,204.219915 1216.425,203.806298 1220.18801,203.41566 C1220.25918,237.587319 1218.44311,271.777362 1218.23648,305.900766 C1219.72883,306.408596 1222.68827,307.394383 1224.18291,307.879234 C1224.4125,301.215404 1224.48367,294.572255 1224.34362,287.908426 C1225.58112,287.956681 1241.81096,287.864757 1243.03009,287.908417 C1242.01759,275.683736 1243.03009,260 1243.85663,250.590979 C1244.29056,241.817702 1244.82092,233.060511 1243.53291,224.326298 C1243.21378,191.007149 1243.21378,157.713277 1243.0301,124.394128 C1247.34413,124.371149 1269.15536,123.980511 1273.97679,123.934553 C1273.74719,118.442638 1273.70357,222.927745 1273.68061,217.43583 C1284.24184,217.550723 1294.80077,217.642638 1305.36199,217.366894 C1306.74413,266.932 1307.31811,206.543064 1308.18597,256.105872 C1306.1449,268.88434 1308.71403,281.727149 1308.85408,294.549277 C1310.1375,294.549277 1312.68827,294.503319 1313.94872,294.482638 C1314.38724,288.209447 1315.09668,281.956936 1315.81071,275.709021 C1317.44311,275.709021 1320.70332,275.686043 1322.33112,275.686043 C1323.22883,257.76034 1323.4125,239.834638 1324.39745,221.91583 C1328.36939,222.076681 1332.33903,222.212255 1336.33393,222.396085 C1336.24439,220.833532 1336.10434,217.733702 1336.03776,216.171149 C1346.5301,215.366894 1357.09133,215.160085 1367.56071,213.896255 C1367.48954,215.642638 1367.32653,219.135404 1367.23699,220.881787 C1371.85179,220.769191 1376.48724,220.815149 1381.125,220.60834 C1380.98954,254.407745 1383.28546,288.145106 1383.46913,321.921532 C1385.03036,322.429362 1388.10689,323.438128 1389.64286,323.945957 C1391.68852,315.763234 1390.28342,217.309362 1389.84949,209.032426 C1391.38776,209.009447 1394.50791,208.986468 1396.07372,208.986468 C1396.22985,198.071574 1396.3699,167.156681 1396.09668,156.241787 C1398.02526,156.496851 1401.8824,157.000085 1403.80867,157.250553 C1405.48469,146.65966 1406.83929,135.995234 1408.95153,125.448 C1410.83418,135.514979 1413.81658,145.738213 1412.53546,156.05566 C1415.74515,156.747319 1418.98469,157.204596 1422.26556,157.388426 C1420.6148,171.543319 1421.37245,193.792426 1421.02806,208.016255 C1425.52577,209.509872 1425.78061,314.333957 1425.91837,315.760936 C1427.79643,315.714979 1431.58699,315.620766 1433.46964,315.577106 C1433.3801,309.464766 1433.14592,303.352426 1432.91862,297.240085 C1434.55102,297.079234 1437.81122,296.711574 1439.43903,296.548426 C1439.7398,269.849447 1441.16097,243.171149 1441.48469,216.492851 C1442.86224,216.377957 1445.6426,216.14817 1447.01786,216.033277 C1448.69388,207.370298 1449.26786,138.523489 1451.01276,129.860511 C1455.55638,129.814553 1460.12526,129.975404 1464.69413,129.952426 C1465.56888,138.523489 1466.43903,207.094553 1467.56403,215.642638 C1469.05638,215.550723 1472.04337,215.343915 1473.53342,215.252 C1474.45179,246.043489 1475.53316,276.837277 1475.34949,307.647149 C1477.23214,307.580511 1481.04337,307.463319 1482.95128,307.396681 C1488.98724,233.129447 1572.62526,239.90817 1578.52577,317.206298 C1581.69643,312.314128 1581.80893,307.327745 1582.19923,302.36434 C1583.41837,302.410298 1585.84974,302.504511 1587.06888,302.54817 C1587.48214,286.692851 1588.32934,270.858213 1588.44643,255.007489 C1592.0074,255.053447 1595.58444,255.097106 1599.16837,255.143064 C1598.80102,250.273872 1598.57143,245.400085 1598.29362,240.507915 C1602.97959,240.668766 1607.66097,240.827319 1612.3699,240.942213 C1612.28036,245.744766 1612.25281,250.547319 1612.25281,255.349872 C1615.33393,255.283234 1618.41046,255.214298 1621.50765,255.166043 C1621.07372,276.421362 1619.89821,297.676681 1619.89821,318.954979 C1621.55357,318.982553 1624.8574,319.049191 1626.51276,319.095149 C1625.73214,329.897447 1624.42347,340.628511 1624.05612,351.449191 C1625.61735,351.426213 1628.74209,351.336596 1630.30332,351.28834 C1630.20918,389.481277 1630.30332,427.669617 1630.28036,465.862553 C1336.3792,465.566756 1019.29617,465.852283 724.592602,465.862282 C719.214241,465.862461 709.000055,465.847321 709,465.862549 C524.177863,465.672075 139.117343,448.152679 54.5586716,457 Z M54.5586716,457" id="chicago" fill="#D0D0D0"></path>
        <path d="M148.113426,114.319357 C149.494684,114.660005 152.299702,115.341301 153.680961,115.681949 C155.083469,122.537489 156.358477,129.414319 157.123482,136.35502 C159.99225,137.398254 162.861018,138.441489 165.751036,139.463432 C165.559785,151.045462 164.157276,162.56362 164.433528,174.147778 C164.454778,213.256289 163.17977,252.411639 164.093526,291.477569 C163.774774,297.92646 172.317327,301.377649 174.676092,294.287914 C175.504847,294.417786 177.162357,294.690305 177.969862,294.841467 C178.479865,271.911604 178.203614,248.979611 178.798617,226.049748 C191.357446,225.347161 203.937525,225.264129 216.517603,225.538776 C216.687604,265.26684 216.432603,304.994904 216.538853,344.722969 C220.640129,344.980584 224.507653,346.236723 227.716423,348.872486 C229.182682,349.02152 232.0727,349.321716 233.53896,349.470749 C233.60271,343.528572 233.347708,337.569362 234.112713,331.674024 C235.812724,323.432473 241.061507,316.513062 246.735292,310.528304 C247.054044,305.080066 246.544041,299.459376 247.94655,294.115461 C250.284064,290.347044 253.705336,287.387665 256.701604,284.1728 C259.697873,287.832636 263.586647,291.07092 265.095407,295.690958 C266.030413,300.800677 265.817911,306.03601 266.030413,311.23089 C270.216689,316.021252 273.59546,321.452457 276.102976,327.286053 C276.294227,319.791799 275.061719,311.68012 278.929243,304.865032 C282.818018,297.309036 284.305527,288.897161 286.515541,280.76845 C288.04555,287.662312 288.661804,294.922371 291.849324,301.356359 C293.698086,305.614458 296.354352,309.806556 296.01435,314.662918 C296.01435,327.307344 295.97185,339.953898 296.01435,352.623871 C298.734367,352.623871 301.454384,352.623871 304.195651,352.645162 C304.0044,341.018422 303.94065,329.374651 304.365652,317.747911 C312.610704,317.726621 320.855755,317.726621 329.079557,317.726621 C329.355808,329.306521 329.100807,340.88855 330.205814,352.432257 C331.289571,352.261933 333.414584,351.942576 334.498341,351.791413 C334.923343,340.03906 334.880843,328.284577 334.795842,316.553514 C338.727117,314.424465 342.658392,312.274125 346.568416,310.145075 C351.030944,312.274125 355.493472,314.381884 359.956,316.489643 C360.211001,328.282448 360.636004,340.058221 360.593504,351.851027 C361.63476,351.917027 363.717273,352.042641 364.75853,352.108641 C364.631029,353.639428 364.397277,356.662678 364.269777,358.176433 C370.092313,358.45108 376.403603,357.582428 381.609885,360.816454 C382.162389,359.943544 383.224895,358.216885 383.756148,357.365265 C388.006175,358.621404 392.171201,360.156449 396.378727,361.580783 C396.251227,351.318764 396.187476,341.054616 396.484978,330.818146 C405.728786,330.560531 415.015094,330.390207 424.237651,331.433441 C424.258902,341.31436 424.216401,351.214441 424.258902,361.135812 C426.42854,361.135812 430.763567,361.178393 432.931081,361.197554 C432.801455,359.387862 432.548578,355.787639 432.421078,353.977947 C435.077344,354.086529 437.733611,354.169561 440.411128,354.278143 C440.049875,329.623749 440.519503,304.948065 441.133632,280.314962 C444.74403,278.50527 448.401178,276.718998 452.037075,274.909305 C456.138351,276.868031 460.301252,278.760756 464.530028,280.527867 C464.487528,305.735814 465.190907,330.94376 464.931656,356.130416 C466.334165,356.175126 469.139182,356.238998 470.562941,356.260288 C470.628816,354.833825 470.798817,351.959608 470.881693,350.535274 C478.637991,350.83547 486.500541,350.577855 493.704336,347.299119 C501.311883,343.528572 509.259433,348.127319 516.609854,350.256368 C516.378227,323.347311 516.269852,296.436125 516.801105,269.52281 C520.755755,265.713941 524.264152,261.477132 527.574922,257.089161 C530.082438,257.321227 532.592079,257.578842 535.099594,257.85349 C537.394609,262.390494 540.112501,266.710336 543.599647,270.461721 C544.553778,294.666885 543.491272,318.918888 544.343402,343.124052 C550.656817,337.207424 555.96935,329.517297 553.627585,320.449675 C566.804793,314.978018 580.298627,310.294109 593.57996,305.101357 C594.642467,306.03601 595.704973,306.951501 596.76748,307.888283 C599.784999,305.20568 602.549641,302.269721 605.076282,299.140018 C606.540416,299.010146 609.455934,298.756789 610.920068,298.629046 C611.342946,299.929896 612.195076,302.546497 612.617954,303.847347 C625.538035,308.105446 637.442359,314.724661 649.744061,320.451804 C649.382809,327.266892 649.444434,334.077721 649.661185,340.914099 C658.116613,346.000398 666.786667,350.726888 675.182595,355.900479 C675.095469,353.047552 675.012594,350.175465 674.925468,347.322538 C683.786774,343.575411 694.498966,336.464386 703.551522,343.701025 C703.764024,328.50174 702.958643,313.279036 704.191151,298.118074 C705.61491,289.048323 705.527785,279.829539 705.336533,270.676755 C712.965331,270.632045 720.594129,270.676755 728.242052,270.738497 C727.309171,276.850999 726.308289,283.042275 727.009544,289.237809 C731.176695,311.68012 726.735417,334.716436 730.537066,357.19707 C732.409203,361.987431 735.828349,365.904882 738.845868,369.996916 C746.158038,365.589783 754.422215,363.392604 762.922268,363.011504 C763.071019,357.710171 763.221895,352.387547 763.474772,347.086214 C768.661929,344.128964 773.738586,340.95668 778.755742,337.722654 C779.431496,322.923631 779.773624,308.107575 779.648248,293.308552 C779.431496,281.428455 780.540753,269.422745 778.36899,257.646972 C778.730242,256.478124 779.456997,254.15746 779.792749,252.986482 C778.647367,251.772924 776.331102,249.303227 775.18147,248.087539 C784.491153,245.470938 793.630835,241.958006 803.23377,240.531543 C811.882574,242.12833 819.872624,246.216105 828.332302,248.619802 C825.801411,263.501858 826.141413,278.66282 827.331421,293.649199 C827.841424,311.213858 827.461047,328.778517 827.461047,346.343175 C831.541072,349.877398 835.642348,353.41162 839.762749,356.926681 C839.783999,359.545412 839.824374,362.162013 839.892374,364.780744 C843.249895,364.868035 846.628666,364.951068 850.007438,365.05965 L850.007438,465.889307 L5.68434189e-14,465.889307 L5.68434189e-14,348.663839 C4.99378121,344.514322 10.561316,340.126351 17.5101094,341.212166 C18.4876155,344.192835 19.4651217,347.175634 20.4638779,350.135013 C21.8451365,347.727058 23.1626448,345.25736 24.4164026,342.766372 C25.5426596,345.747041 26.4564154,348.791582 27.2851705,351.902124 L31.1526947,351.814833 C30.8551928,345.70659 30.3451897,339.615379 29.9414371,333.505007 C32.6614541,333.164359 35.3814711,332.842872 38.1014881,332.544805 C37.9527372,328.352707 37.7827361,324.177641 37.4214839,320.006833 C39.3764961,316.770677 41.4802593,313.640975 43.8177739,310.679467 C44.1152757,306.291496 43.9452747,301.867331 44.5827786,297.521941 C46.1127882,297.221745 49.1728073,296.606449 50.7028169,296.287092 C50.9365684,301.164744 51.1490697,306.059429 51.3828211,310.937082 C54.1453384,313.894331 56.5678535,317.107067 58.9903687,320.347481 C58.3528647,322.817178 57.7153607,325.286876 57.0991069,327.777863 C57.5666098,328.946712 58.5441159,331.286537 59.032869,332.459643 C60.647879,332.502224 63.8778992,332.608677 65.4929093,332.651258 C65.3229083,339.462087 65.0679067,346.258013 65.0891568,353.090133 C69.5729348,351.003665 73.8654617,348.557387 78.072988,345.957817 C79.2629954,333.121778 77.7117357,320.047285 80.6867543,307.402859 C82.9392684,297.311165 85.1917824,287.21947 86.8492928,276.997903 C87.6355477,276.955322 89.1655573,276.89358 89.9305621,276.853128 C93.436834,297.632651 100.661879,317.962945 98.6856168,339.340731 C100.534378,339.274731 102.38314,339.25344 104.231901,339.210859 C104.274402,332.761968 106.016913,326.628177 110.649442,321.925106 C115.579472,326.39611 117.406984,332.653387 117.683236,339.127827 C121.784511,338.978793 125.885787,338.808469 129.987062,338.678597 C130.497066,312.959679 131.007069,287.24076 131.772074,261.521842 C131.878324,220.067119 135.108344,178.637944 133.110832,137.185349 C136.595854,137.249221 140.102126,137.355673 143.608398,137.100187 C144.330902,133.842742 143.608398,130.564005 143.162145,127.32785 L145.287158,125.539449 C146.179664,121.792321 147.13592,118.045194 148.113426,114.319357 L148.113426,114.319357 L148.113426,114.319357 Z M148.113426,114.319357" id="Shape" fill="#E3E3E3"></path>
        <path d="M995.059921,217.685655 C994.884198,229.267684 993.536975,334.144234 993.536975,334.144236 C993.536975,334.144234 1012.06941,337.356971 1012.81135,337.508134 C1013.27996,314.57827 1013.02614,327.201833 1013.57283,304.27197 C1025.11208,303.569384 1036.67085,303.486351 1048.22961,303.760998 C1048.38582,343.489062 1048.15152,304.994904 1048.24914,344.722969 C1052.01746,344.980584 1055.571,346.236723 1058.51926,348.872486 C1059.86649,349.02152 1062.52188,349.321716 1063.8691,349.470749 C1063.92768,343.528572 1063.69338,337.569362 1064.39627,331.674024 C1065.95828,323.432473 1070.78094,316.513062 1075.9941,310.528304 C1076.28698,305.080066 1075.81837,299.459376 1077.10702,294.115461 C1079.25477,290.347044 1082.39829,287.387665 1085.15131,284.1728 C1087.90432,287.832636 1091.47739,291.07092 1092.86366,295.690958 C1093.72275,300.800677 1093.5275,306.03601 1093.72275,311.23089 C1097.56917,316.021252 1100.67364,321.452457 1102.97758,327.286053 C1103.15331,319.791799 1102.02086,269.013453 1105.5744,262.198366 C1109.14747,254.642369 1110.51421,246.230494 1112.54481,238.101783 C1113.9506,244.995646 1114.51683,252.255704 1117.44557,258.689692 C1119.14424,262.947791 1121.58486,267.13989 1121.27246,271.996252 C1121.27246,284.640677 1121.23341,339.953898 1121.27246,352.623871 C1123.77166,352.623871 1126.27085,352.623871 1128.78956,352.645162 C1128.61384,341.018422 1128.55527,343.596873 1128.94576,331.970133 C1136.52145,331.948843 1144.09713,331.948843 1151.65329,331.948843 C1151.90711,343.528743 1151.67281,340.88855 1152.68811,352.432257 C1153.68388,352.261933 1155.63638,351.942576 1156.63215,351.791413 C1157.02264,340.03906 1156.98359,299.840133 1156.90549,288.10907 C1160.51761,285.98002 1164.12973,283.82968 1167.72232,281.700631 C1171.82256,283.82968 1175.9228,285.937439 1180.02304,288.045198 C1180.25734,299.838004 1180.64784,340.058221 1180.60879,351.851027 C1181.56551,351.917027 1183.47895,352.042641 1184.43568,352.108641 C1184.31853,353.639428 1184.10375,356.662678 1183.98661,358.176433 C1189.33644,358.45108 1195.13535,357.582428 1199.91897,360.816454 C1200.42661,359.943544 1201.40286,358.216885 1201.89098,357.365265 C1205.79598,358.621404 1209.62286,360.156449 1213.48881,361.580783 C1213.37166,351.318764 1213.31308,319.721283 1213.58643,309.484813 C1222.07979,309.227198 1230.61219,309.056874 1239.08601,310.100108 C1239.10554,319.981027 1239.06649,351.214441 1239.10554,361.135812 C1241.09904,361.135812 1245.08213,361.178393 1247.07367,361.197554 C1246.95457,359.387862 1246.72222,355.787639 1246.60508,353.977947 C1249.0457,354.086529 1251.48631,354.169561 1253.94646,354.278143 C1253.61454,329.623749 1254.04603,290.725843 1254.6103,266.09274 C1257.92759,264.283048 1261.28784,262.496775 1264.62856,260.687083 C1268.39687,262.645809 1272.22181,264.538534 1276.10728,266.305645 C1276.06823,291.513591 1276.7145,330.94376 1276.4763,356.130416 C1277.76495,356.175126 1280.34223,356.238998 1281.65041,356.260288 C1281.71094,354.833825 1281.86714,351.959608 1281.94328,350.535274 C1289.06989,350.83547 1296.29412,350.577855 1302.91308,347.299119 C1309.90301,343.528572 1317.20534,348.127319 1323.95903,350.256368 C1323.74621,323.347311 1323.64662,331.991681 1324.13475,305.078366 C1327.76835,301.269496 1330.99191,297.032688 1334.0339,292.644716 C1336.33785,292.876783 1338.64374,293.134398 1340.94769,293.409045 C1343.05638,297.94605 1345.55362,302.265891 1348.75767,306.017277 C1349.63434,330.222441 1348.65809,318.918888 1349.44104,343.124052 C1355.2419,337.207424 1360.12314,329.517297 1357.97149,320.449675 C1370.07891,314.978018 1382.47726,310.294109 1394.68035,305.101357 C1395.6566,306.03601 1396.63284,306.951501 1397.60909,307.888283 C1400.38164,305.20568 1402.92183,302.269721 1405.24335,299.140018 C1406.58862,299.010146 1409.26745,298.756789 1410.61271,298.629046 C1411.00126,299.929896 1411.78421,302.546497 1412.17276,303.847347 C1424.04393,308.105446 1434.9818,314.724661 1446.2848,320.451804 C1445.95287,327.266892 1446.0095,334.077721 1446.20865,340.914099 C1453.97762,346.000398 1461.94381,350.726888 1469.65812,355.900479 C1469.57806,353.047552 1469.50192,350.175465 1469.42187,347.322538 C1477.56377,343.575411 1487.4063,336.464386 1495.72392,343.701025 C1495.91917,328.50174 1495.17918,284.834592 1496.31163,269.67363 C1497.6198,260.603879 1497.53975,251.385095 1497.36402,242.232311 C1504.37348,242.187601 1511.38294,242.232311 1518.40996,242.294053 C1517.55282,248.406554 1516.6332,254.59783 1517.27752,260.793364 C1521.10637,283.235676 1517.02565,334.716436 1520.51866,357.19707 C1522.23881,361.987431 1525.38037,365.904882 1528.15292,369.996916 C1534.87145,365.589783 1542.46471,363.392604 1550.27469,363.011504 C1550.41136,357.710171 1550.54999,352.387547 1550.78233,347.086214 C1555.54838,344.128964 1560.21289,340.95668 1564.82273,337.722654 C1565.44362,322.923631 1565.75797,308.107575 1565.64278,293.308552 C1565.44362,281.428455 1566.46282,297.867189 1564.46737,286.091416 C1564.7993,284.922568 1565.46705,282.601904 1565.77555,281.430927 C1564.72315,280.217369 1562.59493,277.747671 1561.53863,276.531984 C1570.09251,273.915382 1578.4902,270.40245 1587.31352,268.975987 C1595.26018,270.572774 1602.60156,274.660549 1610.37444,277.064246 C1608.04902,291.946303 1608.36141,278.66282 1609.45481,293.649199 C1609.92342,311.213858 1609.57392,328.778517 1609.57392,346.343175 C1613.3227,349.877398 1617.09102,353.41162 1620.87691,356.926681 C1620.89644,359.545412 1620.93354,362.162013 1620.99602,364.780744 C1624.08096,364.868035 1627.18542,364.951068 1630.28989,365.05965 L1630.28989,465.889307 L849.289891,465.889307 L849.289891,348.663839 C853.878255,344.514322 858.993792,340.126351 865.378451,341.212166 C866.276599,344.192835 873.598456,348.791582 874.359929,351.902124 L877.91347,351.814833 C877.64012,345.70659 877.171522,339.615379 876.800548,333.505007 C879.299742,333.164359 881.798935,332.842872 884.298129,332.544805 C884.161454,328.352707 884.005255,217.510974 883.67333,213.340166 C885.469625,210.104011 901.265311,210.440401 903.491156,213.680814 C902.905407,216.150511 902.319659,325.286876 901.753435,327.777863 C902.182984,328.946712 903.081132,331.286537 903.530205,332.459643 C905.014102,332.502224 907.981895,332.608677 909.465791,332.651258 C909.309592,339.462087 909.075292,346.258013 909.094817,353.090133 C913.214581,351.003665 917.158622,348.557387 921.024562,345.957817 C922.117959,333.121778 923.426134,307.402855 923.426131,307.402859 C923.426128,307.402864 929.810788,298.186458 929.088367,298.331236 C929.81079,298.288655 939.260864,278.307118 939.963762,278.266666 C939.260864,278.307115 941.779585,317.962945 939.963764,339.340731 C941.662436,339.274731 943.361106,339.25344 945.059777,339.210859 C945.098827,332.761968 946.699873,298.183732 950.956312,293.480662 C955.486101,297.951666 957.165246,332.653387 957.419071,339.127827 C961.187387,338.978793 964.955702,338.808469 968.724018,338.678597 C969.192616,312.959679 973.429531,256.860166 971.594185,215.407572 C974.796277,215.471443 992.404526,216.663711 995.059921,217.685655 L995.059921,217.685655 Z M995.059921,217.685655" id="Shape" fill="#E3E3E3"></path>
    </g>
</svg>