<?xml version="1.0" encoding="UTF-8" standalone="no"?>
<svg width="199px" height="46px" viewBox="0 0 199 46" version="1.1" xmlns="http://www.w3.org/2000/svg" xmlns:xlink="http://www.w3.org/1999/xlink" xmlns:sketch="http://www.bohemiancoding.com/sketch/ns">
    <title>ftf</title>
    <description>Created with Sketch (http://www.bohemiancoding.com/sketch)</description>
    <defs></defs>
    <g id="Page 1" stroke="none" stroke-width="1" fill="none" fill-rule="evenodd">
        <g id="Layer_1" fill="#706F6F">
            <g id="Page_1">
                <g id="Group_2_">
                    <g id="Livello_1">
                        <path d="M0.332,0.189 L30.324,0.189 L30.324,7.378 L7.389,7.378 C7.286,10.009 7.375,12.832 7.345,15.537 L22.693,15.537 L22.693,22.594 L7.345,22.594 L7.345,30.268 L0.288,30.268 C0.315,20.261 0.246,10.208 0.288,0.321 C0.284,0.259 0.281,0.197 0.332,0.189 L0.332,0.189 L0.332,0.189 Z M0.332,0.189" id="Shape"></path>
                        <path d="M46.2,0.189 L76.191,0.189 L76.191,7.246 L53.213,7.246 C53.211,7.853 53.213,8.516 53.213,9.275 L53.213,11.348 C53.213,12.744 53.211,14.155 53.213,15.406 C58.241,15.51 63.46,15.421 68.561,15.451 L68.561,22.507 L53.213,22.507 C53.212,24.898 53.214,27.646 53.213,30.181 L46.156,30.181 L46.156,0.321 C46.153,0.259 46.149,0.197 46.2,0.189 L46.2,0.189 L46.2,0.189 Z M46.2,0.189" id="Shape_1_"></path>
                        <path d="M37.953,38.472 L37.953,38.515 L45.583,38.515 L45.583,45.572 L30.852,45.572 L30.852,22.638 C28.412,22.535 25.78,22.623 23.267,22.594 L23.267,15.449 L30.852,15.449 L30.852,7.863 L37.953,7.863 L37.953,15.449 L45.583,15.449 L45.583,22.594 L37.997,22.594 C37.894,27.798 37.983,33.194 37.953,38.472 L37.953,38.472 L37.953,38.472 Z M37.953,38.472" id="Shape_2_"></path>
                        <g id="Group" transform="translate(81.000000, 0.000000)">
                            <path d="M0.101,0.603 L11.359,0.603 L11.359,3.439 L3.469,3.439 L3.469,9.29 L10.885,9.29 L10.885,12.126 L3.469,12.126 L3.469,21.7 L0.1,21.7 L0.101,0.603 L0.101,0.603 Z M0.101,0.603" id="Shape_3_"></path>
                            <path d="M13.78,0.603 L21.226,0.603 C24.181,0.603 26.574,2.11 26.574,6.04 C26.574,8.759 25.392,10.856 23.058,11.21 L23.058,11.269 C25.186,11.477 26.248,12.628 26.368,15.583 C26.397,16.972 26.397,18.597 26.486,19.867 C26.574,20.902 27.048,21.375 27.491,21.7 L23.679,21.7 C23.354,21.316 23.206,20.666 23.117,19.838 C23.058,19.218 23.029,18.568 23.029,17.948 C23.029,17.328 22.999,16.618 22.97,15.85 C22.881,13.545 22.172,12.541 19.897,12.541 L17.149,12.541 L17.149,21.701 L13.78,21.701 L13.78,0.603 L13.78,0.603 Z M19.838,9.999 C21.995,9.999 23.206,8.699 23.206,6.572 C23.206,4.326 22.261,3.145 20.016,3.145 L17.15,3.145 L17.15,9.999 L19.838,9.999 L19.838,9.999 Z M19.838,9.999" id="Shape_4_"></path>
                            <path d="M29.144,11.151 C29.144,3.617 31.271,0.19 36.116,0.19 C40.962,0.19 43.09,3.617 43.09,11.151 C43.09,18.686 40.962,22.113 36.116,22.113 C31.271,22.113 29.144,18.686 29.144,11.151 L29.144,11.151 L29.144,11.151 Z M39.722,11.062 C39.722,3.971 38.126,2.73 36.117,2.73 C34.108,2.73 32.513,3.971 32.513,11.062 C32.513,18.301 34.108,19.572 36.117,19.572 C38.126,19.572 39.722,18.302 39.722,11.062 L39.722,11.062 L39.722,11.062 Z M39.722,11.062" id="Shape_5_"></path>
                            <path d="M46.074,0.603 L51.333,0.603 L55.056,16.234 L55.115,16.234 L58.779,0.603 L63.92,0.603 L63.92,21.7 L60.73,21.7 L60.73,4.149 L60.671,4.149 L56.416,21.7 L53.579,21.7 L49.325,4.149 L49.266,4.149 L49.266,21.7 L46.075,21.7 L46.074,0.603 L46.074,0.603 Z M46.074,0.603" id="Shape_6_"></path>
                        </g>
                        <g id="Group_1_" transform="translate(80.000000, 23.000000)">
                            <path d="M6.153,2.427 L0.715,2.427 L0.715,0.831 L13.483,0.831 L13.483,2.427 L8.045,2.427 L8.045,21.934 L6.153,21.934 L6.153,2.427 L6.153,2.427 Z M6.153,2.427" id="Shape_7_"></path>
                            <path d="M25.451,11.412 L17.204,11.412 L17.204,21.934 L15.313,21.934 L15.313,0.832 L17.204,0.832 L17.204,9.817 L25.451,9.817 L25.451,0.832 L27.343,0.832 L27.343,21.934 L25.451,21.934 L25.451,11.412 L25.451,11.412 Z M25.451,11.412" id="Shape_8_"></path>
                            <path d="M30.653,0.831 L41.115,0.831 L41.115,2.427 L32.545,2.427 L32.545,10.112 L40.554,10.112 L40.554,11.709 L32.545,11.709 L32.545,20.339 L41.381,20.339 L41.381,21.934 L30.653,21.934 L30.653,0.831 L30.653,0.831 L30.653,0.831 Z M30.653,0.831" id="Shape_9_"></path>
                            <path d="M43.862,0.831 L55.123,0.831 L55.123,3.668 L47.23,3.668 L47.23,9.52 L54.649,9.52 L54.649,12.357 L47.23,12.357 L47.23,21.934 L43.861,21.934 L43.861,0.831 L43.862,0.831 L43.862,0.831 Z M43.862,0.831" id="Shape_10_"></path>
                            <path d="M57.545,0.831 L64.993,0.831 C67.948,0.831 70.343,2.339 70.343,6.269 C70.343,8.989 69.161,11.086 66.825,11.441 L66.825,11.5 C68.953,11.708 70.018,12.859 70.136,15.815 C70.165,17.204 70.165,18.829 70.254,20.101 C70.343,21.136 70.816,21.608 71.258,21.934 L67.446,21.934 C67.122,21.549 66.973,20.899 66.885,20.071 C66.825,19.451 66.796,18.801 66.796,18.18 C66.796,17.559 66.767,16.85 66.737,16.081 C66.648,13.775 65.938,12.771 63.663,12.771 L60.915,12.771 L60.915,21.933 L57.545,21.933 L57.545,0.831 L57.545,0.831 Z M63.605,10.23 C65.762,10.23 66.973,8.93 66.973,6.801 C66.973,4.555 66.028,3.373 63.782,3.373 L60.915,3.373 L60.915,10.229 L63.605,10.229 L63.605,10.23 L63.605,10.23 Z M63.605,10.23" id="Shape_11_"></path>
                            <path d="M72.913,11.382 C72.913,3.845 75.04,0.418 79.888,0.418 C84.736,0.418 86.864,3.846 86.864,11.382 C86.864,18.919 84.736,22.347 79.888,22.347 C75.041,22.348 72.913,18.92 72.913,11.382 L72.913,11.382 L72.913,11.382 Z M83.494,11.294 C83.494,4.201 81.898,2.96 79.888,2.96 C77.878,2.96 76.283,4.202 76.283,11.294 C76.283,18.535 77.879,19.806 79.888,19.806 C81.898,19.806 83.494,18.535 83.494,11.294 L83.494,11.294 L83.494,11.294 Z M83.494,11.294" id="Shape_12_"></path>
                            <path d="M89.848,0.831 L93.956,0.831 L100.075,16.555 L100.134,16.555 L100.134,0.831 L103.325,0.831 L103.325,21.934 L99.217,21.934 L93.1,5.796 L93.041,5.796 L93.041,21.934 L89.849,21.934 L89.849,0.831 L89.848,0.831 L89.848,0.831 Z M89.848,0.831" id="Shape_13_"></path>
                            <path d="M110.269,3.669 L105.245,3.669 L105.245,0.832 L118.575,0.832 L118.575,3.669 L113.639,3.669 L113.639,21.934 L110.269,21.934 L110.269,3.669 L110.269,3.669 Z M110.269,3.669" id="Shape_14_"></path>
                        </g>
                    </g>
                </g>
            </g>
        </g>
    </g>
</svg>