<?xml version="1.0" encoding="utf-8"?>
<!-- Generator: Adobe Illustrator 16.0.0, SVG Export Plug-In . SVG Version: 6.00 Build 0)  -->
<!DOCTYPE svg PUBLIC "-//W3C//DTD SVG 1.1//EN" "http://www.w3.org/Graphics/SVG/1.1/DTD/svg11.dtd">
<svg version="1.1" id="Layer_1" xmlns="http://www.w3.org/2000/svg" xmlns:xlink="http://www.w3.org/1999/xlink" x="0px" y="0px"
	 width="25px" height="24px" viewBox="0 0 25 24" enable-background="new 0 0 25 24" xml:space="preserve">
<rect fill="#ededed" x="0" y="0" width="25" height="24"/>
<path fill="#4E4E4E" d="M36.357,24.654V24.63c-0.005,0.008-0.011,0.016-0.016,0.024H36.357z"/>
<path fill="#4E4E4E" d="M9.284,16.938H7.128V10.45h2.156V16.938z M8.206,9.563H8.191C7.468,9.563,7,9.065,7,8.442
	c0-0.637,0.483-1.121,1.22-1.121c0.738,0,1.192,0.484,1.207,1.121C9.427,9.065,8.958,9.563,8.206,9.563z M17.061,16.938h-2.155
	v-3.471c0-0.872-0.312-1.468-1.094-1.468c-0.596,0-0.951,0.402-1.105,0.79c-0.058,0.139-0.071,0.333-0.071,0.526v3.623h-2.157
	c0,0,0.028-5.879,0-6.487h2.157v0.917c0.286-0.441,0.798-1.071,1.944-1.071c1.418,0,2.481,0.928,2.481,2.92V16.938z"/>
</svg>
