<?xml version="1.0" encoding="UTF-8" standalone="no"?>
<svg width="202px" height="263px" viewBox="0 0 202 263" version="1.1" xmlns="http://www.w3.org/2000/svg" xmlns:xlink="http://www.w3.org/1999/xlink" xmlns:sketch="http://www.bohemiancoding.com/sketch/ns">
    <title>lampione</title>
    <description>Created with Sketch (http://www.bohemiancoding.com/sketch)</description>
    <defs></defs>
    <g id="Page 1" fill="#D8D8D8" fill-rule="evenodd">
        <g id="Lampione">
            <g id="Group">
                <path d="M187.14447,206.103735 C188.119368,206.333404 188.837632,207.013733 188.984809,208.26963 C189.35801,211.445946 189.910544,214.601186 190.392582,217.764484 C190.423193,217.965638 190.432778,218.329513 190.502347,218.342221 C191.926198,218.603195 193.433223,219.199839 194.764006,218.932666 C195.81713,218.720974 196.291128,217.330561 195.814347,216.025383 C195.678301,215.653139 195.65171,215.224485 195.648618,214.820937 C195.538234,200.792518 195.450423,186.76379 195.327671,172.735372 C195.253773,164.284413 195.131022,155.834384 195.022494,147.383735 C194.926025,139.914371 194.815332,132.445628 194.715462,124.976265 C194.609407,117.042914 194.524378,109.109873 194.399154,101.176832 C194.331749,96.9092 194.310105,92.6366089 194.068004,88.3776553 C193.781069,83.3382604 193.224206,78.3149826 192.885636,73.2777574 C192.527586,67.9566225 190.171197,63.1577449 189.07324,58.0380742 C187.835834,52.2662794 184.357371,47.6016079 181.673852,42.5414467 C181.176664,41.6035533 180.60094,40.704713 180.141164,39.7491527 C178.578793,36.5012396 175.964844,34.1211723 173.533011,31.5848928 C171.027281,28.971437 168.710161,26.145049 165.996341,23.7727304 C163.906171,21.9456049 161.338601,20.6639826 158.966753,19.1657087 C156.662928,17.7105172 154.458974,16.0117089 151.989728,14.9278314 C149.346405,13.7677075 146.468093,13.1053551 143.649455,12.3974409 C139.30586,11.3061247 134.946804,10.2544815 130.554664,9.38539588 C126.544073,8.59193681 122.474117,8.10532324 118.448066,7.38346146 C117.610761,7.23313816 116.853538,6.64052342 116.057047,6.25650163 C113.107929,4.83416426 110.153554,3.42205508 107.213402,1.98174091 C106.861227,1.80910157 106.495447,1.54347875 106.28643,1.22268573 C105.711324,0.340582409 103.413683,-0.381279374 102.533091,0.222803329 C101.718048,0.781944015 100.967937,0.706317448 100.024578,0.707557228 C98.0568498,0.710346732 95.8797955,0.820687133 94.1721019,1.66559706 C91.6187552,2.92862272 91.3318206,6.41209399 93.2305978,8.20853491 C93.3344879,8.30678746 93.3783939,8.54482518 93.4767184,8.56187215 C97.1864609,9.20438803 100.356037,11.8993593 104.353332,11.4449801 C104.557093,11.4217342 104.790227,11.4951911 104.967397,11.4211143 C108.01113,10.15065 111.112991,10.8607338 114.202485,11.1238771 C114.509518,11.1499125 114.865094,11.2304981 115.122964,11.1158185 C117.703829,9.9696421 120.215434,11.0882334 122.657161,11.5317646 C128.896133,12.6646134 135.080377,14.1049276 141.272042,15.487592 C144.16736,16.1341372 147.107821,16.7171436 149.880697,17.7322133 C151.884292,18.465853 153.657536,19.845418 155.513025,20.971138 C158.231483,22.620665 161.059396,24.1285472 163.600066,26.0210711 C165.680033,27.5704859 167.42854,29.57366 169.284957,31.4153529 C170.189976,32.3132634 170.934522,33.3804039 171.874789,34.2346122 C175.12723,37.1899373 177.396734,40.8404688 179.458458,44.6602304 C180.996093,47.5089344 182.744292,50.2534969 184.118362,53.1772076 C185.156026,55.3855654 185.819253,57.7826796 186.526386,60.1329921 C187.600536,63.7035579 188.626141,67.2911707 189.551258,70.9029592 C189.900959,72.2676468 189.987225,73.7150897 190.062669,75.131848 C190.217886,78.0530792 190.367846,80.9786495 190.376813,83.9026702 C190.498327,124.27269 190.595415,164.642709 190.698069,205.012729 C190.699924,205.62363 190.698687,206.234222 190.698687,206.700069 C189.184551,206.29931 187.848202,205.670432 186.49794,205.636958" id="stelo" fill="#7F7F7F"></path>
                <path d="M101.5,13 C106.194421,13 110,10.9852815 110,8.5 C110,6.0147185 106.194421,4 101.5,4 C96.8055794,4 93,6.0147185 93,8.5 C93,10.9852815 96.8055794,13 101.5,13 Z M101.5,13" id="lampada" fill="#FFFFFF" transform="translate(101.500000, 8.500000) rotate(-354.000000) translate(-101.500000, -8.500000)"></path>
                <path d="M110.248214,7 L178.82372,245.963265 C179.597127,246.625255 180,247.305742 180,248 C180,254.627417 143.287352,260 98,260 C52.7126483,260 16,254.627417 16,248 L15.5878906,248 L93.7439293,7 Z M110.248214,7" id="cono" opacity="0.404190341" fill="#FFFFFF"></path>
                <path d="M97.5,262 C142.511209,262 179,256.179702 179,249 C179,241.820298 142.511209,236 97.5,236 C52.4887907,236 16,241.820298 16,249 C16,256.179702 52.4887907,262 97.5,262 Z M97.5,262" id="spotlight" fill="#FFFFFF" opacity=".6"></path>
            </g>
        </g>
    </g>
</svg>