<?xml version="1.0" encoding="utf-8"?>
<!-- Generator: Adobe Illustrator 16.0.0, SVG Export Plug-In . SVG Version: 6.00 Build 0)  -->
<!DOCTYPE svg PUBLIC "-//W3C//DTD SVG 1.1//EN" "http://www.w3.org/Graphics/SVG/1.1/DTD/svg11.dtd">
<svg version="1.1" id="Layer_1" xmlns="http://www.w3.org/2000/svg" xmlns:xlink="http://www.w3.org/1999/xlink" x="0px" y="0px"
	 width="25px" height="24px" viewBox="0 0 25 24" enable-background="new 0 0 25 24" xml:space="preserve">
<rect fill="#ededed" x="0" y="0" width="25" height="24"/>
<path fill="#4E4E4E" d="M36.357,24.654V24.63c-0.005,0.008-0.011,0.016-0.016,0.024H36.357z"/>
<path fill="#4E4E4E" d="M19.307,10.698c-0.5,0.051-1.013,0.028-1.525-0.075c0.602-0.137,1.146-0.488,1.514-0.996
	c-0.561,0.124-1.148,0.156-1.74,0.083c-0.287-0.62-0.824-1.125-1.527-1.354c-1.342-0.442-2.793,0.292-3.232,1.636
	c-0.063,0.19-0.104,0.384-0.12,0.577c-1.991-0.767-3.468-2.326-4.187-4.195C8.16,6.665,7.904,7.044,7.758,7.49
	C7.48,8.335,7.665,9.221,8.176,9.875C7.779,9.73,7.441,9.498,7.172,9.207c-0.003,0.01-0.006,0.02-0.01,0.031
	c-0.388,1.18,0.129,2.44,1.169,3.031c-0.222-0.014-0.447-0.052-0.669-0.125c-0.158-0.052-0.306-0.117-0.445-0.196
	c-0.007,1.07,0.662,2.069,1.721,2.439c-1.049,0.382-2.227,0.424-3.367,0.049C5.373,14.371,5.185,14.297,5,14.211
	c0.852,1.047,2,1.869,3.375,2.321c4.48,1.471,8.15-1.436,9.205-4.655c0.036-0.105,0.067-0.212,0.098-0.318
	C18.268,11.372,18.82,11.078,19.307,10.698z"/>
</svg>
