<?xml version="1.0" encoding="utf-8"?>
<!-- Generator: Adobe Illustrator 16.0.0, SVG Export Plug-In . SVG Version: 6.00 Build 0)  -->
<!DOCTYPE svg PUBLIC "-//W3C//DTD SVG 1.1//EN" "http://www.w3.org/Graphics/SVG/1.1/DTD/svg11.dtd">
<svg version="1.1" id="Layer_1" xmlns="http://www.w3.org/2000/svg" xmlns:xlink="http://www.w3.org/1999/xlink" x="0px" y="0px"
	 width="25px" height="24px" viewBox="0 0 25 24" enable-background="new 0 0 25 24" xml:space="preserve">
<rect fill="#ededed" x="0" y="0" width="25" height="24"/>
<path fill="#4E4E4E" d="M36.357,24.654V24.63c-0.005,0.008-0.011,0.016-0.016,0.024H36.357z"/>
<path fill="#4E4E4E" d="M6.512,10.833l0.473,0.621c0,0,0.975-0.768,1.299-0.385c0.326,0.385,1.564,5.021,1.979,5.877
	c0.361,0.75,1.359,1.742,2.451,1.033c1.093-0.708,4.725-3.81,5.375-7.471c0.649-3.661-4.371-2.894-4.902,0.295
	c1.329-0.798,2.038,0.325,1.358,1.595c-0.679,1.268-1.3,2.096-1.624,2.096s-0.574-0.849-0.945-2.333
	c-0.385-1.535-0.383-4.3-1.979-3.986C8.49,8.47,6.512,10.833,6.512,10.833z"/>
</svg>
