<?xml version="1.0" encoding="UTF-8" standalone="no"?>
<svg width="187px" height="34px" viewBox="0 0 187 34" version="1.1" xmlns="http://www.w3.org/2000/svg" xmlns:xlink="http://www.w3.org/1999/xlink" xmlns:sketch="http://www.bohemiancoding.com/sketch/ns">
    <title>Wagon</title>
    <defs></defs>
    <g id="Page 1" fill="#D8D8D8" fill-rule="evenodd">
        <g id="coach">
            <path d="M2.0048501,1 L28,1 L28,0 L53,0 L53,1 L133,1 L133,0 L158,0 L158,1 L184.99515,1 C186.103472,1 187,1.89242519 187,2.99328744 L187,28.0067126 C187,29.1002873 186.102398,30 184.99515,30 L2.0048501,30 C0.896527974,30 0,29.1075748 0,28.0067126 L0,2.99328744 C0,1.89971268 0.897601965,1 2.0048501,1 Z M2.0048501,1" id="Rectangle 1" fill="#FFFFFF"></path>
            <path d="M30,35 C27.5810469,35 25.5632966,33.2822474 25.1000181,31 L34.8999819,31 C34.4367034,33.2822474 32.4189531,35 30,35 Z M30,35" id="Oval 1" fill="#FFFFFF"></path>
            <path d="M53,35 C50.5810469,35 48.5632966,33.2822474 48.1000181,31 L57.8999819,31 C57.4367034,33.2822474 55.4189531,35 53,35 Z M53,35" id="Oval 1" fill="#FFFFFF"></path>
            <path d="M135,35 C132.581047,35 130.563297,33.2822474 130.100018,31 L139.899982,31 C139.436703,33.2822474 137.418953,35 135,35 Z M135,35" id="Oval 1" fill="#FFFFFF"></path>
            <path d="M158,35 C155.581047,35 153.563297,33.2822474 153.100018,31 L162.899982,31 C162.436703,33.2822474 160.418953,35 158,35 Z M158,35" id="Oval 1" fill="#FFFFFF"></path>
            <g id="leftdoor">
                <path d="M8.50930035,8 C7.12345203,8 6,9.11760258 6,10.5034561 L6,24.4965439 C6,25.8791645 7.11236572,27 8.50930035,27 L11.4906996,27 C12.876548,27 14,25.8823974 14,24.4965439 L14,10.5034561 C14,9.12083549 12.8876343,8 11.4906996,8 L8.50930035,8 Z M8.50930035,8" id="Rectangle 8" stroke="rgb(220,220,220)" stroke-width="1"></path>
                <path d="M9.0093689,11 C8.45190985,11 8,11.4437166 8,11.9998075 L8,15.0001925 C8,15.5523709 8.44335318,16 9.0093689,16 L10.9906311,16 C11.5480902,16 12,15.5562834 12,15.0001925 L12,11.9998075 C12,11.4476291 11.5566468,11 10.9906311,11 L9.0093689,11 Z M9.0093689,11" id="Rectangle 9" fill="#E3E3E3"></path>
            </g>
            <g id="rightdoor">
                <path d="M175.5093,8 C174.123452,8 173,9.11760258 173,10.5034561 L173,24.4965439 C173,25.8791645 174.112366,27 175.5093,27 L178.4907,27 C179.876548,27 181,25.8823974 181,24.4965439 L181,10.5034561 C181,9.12083549 179.887634,8 178.4907,8 L175.5093,8 Z M175.5093,8" id="Rectangle 8" stroke="rgb(220,220,220)" stroke-width="1"></path>
                <path d="M176.009369,11 C175.45191,11 175,11.4437166 175,11.9998075 L175,15.0001925 C175,15.5523709 175.443353,16 176.009369,16 L177.990631,16 C178.54809,16 179,15.5562834 179,15.0001925 L179,11.9998075 C179,11.4476291 178.556647,11 177.990631,11 L176.009369,11 Z M176.009369,11" id="Rectangle 9" fill="#E3E3E3"></path>
            </g>
            <path d="M21.0070188,8 C19.8985729,8 19,8.88670635 19,9.99810135 L19,14.0018986 C19,15.1054196 19.8998452,16 21.0070188,16 L166.992981,16 C168.101427,16 169,15.1132936 169,14.0018986 L169,9.99810135 C169,8.89458045 168.100155,8 166.992981,8 L21.0070188,8 Z M21.0070188,8" id="windows" fill="#E3E3E3"></path>
        </g>
    </g>
</svg>